%FSLAX45Y45*%
G04 Gerber Fmt 4.5, Leading zero omitted, Abs format (unit mm)*
G04 Created by KiCad (PCBNEW (6.0.2)) date 2022-07-25 17:11:50*
%MOMM*%
%LPD*%
G01*
G04 APERTURE LIST*
%TA.AperFunction,Profile*%
%ADD10C,0.050000*%
%TD*%
%ADD11C,0.200000*%
%ADD12C,0.210000*%
G04 APERTURE END LIST*
D10*
X3150000Y-8250000D02*
X13150000Y-8250000D01*
X13150000Y-8250000D02*
X13150000Y-18250000D01*
X13150000Y-18250000D02*
X3150000Y-18250000D01*
X3150000Y-18250000D02*
X3150000Y-8250000D01*
D11*
D12*
X3495000Y-8645000D02*
X3705000Y-8855000D01*
X3705000Y-8645000D02*
X3495000Y-8855000D01*
X3495000Y-17695000D02*
X3705000Y-17905000D01*
X3705000Y-17695000D02*
X3495000Y-17905000D01*
X12595000Y-8645000D02*
X12805000Y-8855000D01*
X12805000Y-8645000D02*
X12595000Y-8855000D01*
X12595000Y-17695000D02*
X12805000Y-17905000D01*
X12805000Y-17695000D02*
X12595000Y-17905000D01*
D11*
X3405119Y-18562976D02*
X3405119Y-18362976D01*
X3452738Y-18362976D01*
X3481309Y-18372500D01*
X3500357Y-18391548D01*
X3509881Y-18410595D01*
X3519405Y-18448690D01*
X3519405Y-18477262D01*
X3509881Y-18515357D01*
X3500357Y-18534405D01*
X3481309Y-18553452D01*
X3452738Y-18562976D01*
X3405119Y-18562976D01*
X3605119Y-18562976D02*
X3605119Y-18429643D01*
X3605119Y-18467738D02*
X3614643Y-18448690D01*
X3624167Y-18439167D01*
X3643214Y-18429643D01*
X3662262Y-18429643D01*
X3728928Y-18562976D02*
X3728928Y-18429643D01*
X3728928Y-18362976D02*
X3719405Y-18372500D01*
X3728928Y-18382024D01*
X3738452Y-18372500D01*
X3728928Y-18362976D01*
X3728928Y-18382024D01*
X3852738Y-18562976D02*
X3833690Y-18553452D01*
X3824167Y-18534405D01*
X3824167Y-18362976D01*
X3957500Y-18562976D02*
X3938452Y-18553452D01*
X3928928Y-18534405D01*
X3928928Y-18362976D01*
X4186071Y-18562976D02*
X4186071Y-18362976D01*
X4252738Y-18505833D01*
X4319405Y-18362976D01*
X4319405Y-18562976D01*
X4500357Y-18562976D02*
X4500357Y-18458214D01*
X4490833Y-18439167D01*
X4471786Y-18429643D01*
X4433690Y-18429643D01*
X4414643Y-18439167D01*
X4500357Y-18553452D02*
X4481310Y-18562976D01*
X4433690Y-18562976D01*
X4414643Y-18553452D01*
X4405119Y-18534405D01*
X4405119Y-18515357D01*
X4414643Y-18496310D01*
X4433690Y-18486786D01*
X4481310Y-18486786D01*
X4500357Y-18477262D01*
X4595595Y-18429643D02*
X4595595Y-18629643D01*
X4595595Y-18439167D02*
X4614643Y-18429643D01*
X4652738Y-18429643D01*
X4671786Y-18439167D01*
X4681310Y-18448690D01*
X4690833Y-18467738D01*
X4690833Y-18524881D01*
X4681310Y-18543929D01*
X4671786Y-18553452D01*
X4652738Y-18562976D01*
X4614643Y-18562976D01*
X4595595Y-18553452D01*
X4776548Y-18543929D02*
X4786071Y-18553452D01*
X4776548Y-18562976D01*
X4767024Y-18553452D01*
X4776548Y-18543929D01*
X4776548Y-18562976D01*
X4776548Y-18439167D02*
X4786071Y-18448690D01*
X4776548Y-18458214D01*
X4767024Y-18448690D01*
X4776548Y-18439167D01*
X4776548Y-18458214D01*
X2947500Y-18792500D02*
X3147500Y-18992500D01*
X3147500Y-18792500D02*
X2947500Y-18992500D01*
X3395595Y-18802024D02*
X3405119Y-18792500D01*
X3424167Y-18782976D01*
X3471786Y-18782976D01*
X3490833Y-18792500D01*
X3500357Y-18802024D01*
X3509881Y-18821071D01*
X3509881Y-18840119D01*
X3500357Y-18868690D01*
X3386071Y-18982976D01*
X3509881Y-18982976D01*
X3595595Y-18963929D02*
X3605119Y-18973452D01*
X3595595Y-18982976D01*
X3586071Y-18973452D01*
X3595595Y-18963929D01*
X3595595Y-18982976D01*
X3795595Y-18982976D02*
X3681309Y-18982976D01*
X3738452Y-18982976D02*
X3738452Y-18782976D01*
X3719405Y-18811548D01*
X3700357Y-18830595D01*
X3681309Y-18840119D01*
X3919405Y-18782976D02*
X3938452Y-18782976D01*
X3957500Y-18792500D01*
X3967024Y-18802024D01*
X3976548Y-18821071D01*
X3986071Y-18859167D01*
X3986071Y-18906786D01*
X3976548Y-18944881D01*
X3967024Y-18963929D01*
X3957500Y-18973452D01*
X3938452Y-18982976D01*
X3919405Y-18982976D01*
X3900357Y-18973452D01*
X3890833Y-18963929D01*
X3881309Y-18944881D01*
X3871786Y-18906786D01*
X3871786Y-18859167D01*
X3881309Y-18821071D01*
X3890833Y-18802024D01*
X3900357Y-18792500D01*
X3919405Y-18782976D01*
X4109881Y-18782976D02*
X4128928Y-18782976D01*
X4147976Y-18792500D01*
X4157500Y-18802024D01*
X4167024Y-18821071D01*
X4176548Y-18859167D01*
X4176548Y-18906786D01*
X4167024Y-18944881D01*
X4157500Y-18963929D01*
X4147976Y-18973452D01*
X4128928Y-18982976D01*
X4109881Y-18982976D01*
X4090833Y-18973452D01*
X4081309Y-18963929D01*
X4071786Y-18944881D01*
X4062262Y-18906786D01*
X4062262Y-18859167D01*
X4071786Y-18821071D01*
X4081309Y-18802024D01*
X4090833Y-18792500D01*
X4109881Y-18782976D01*
X4262262Y-18982976D02*
X4262262Y-18849643D01*
X4262262Y-18868690D02*
X4271786Y-18859167D01*
X4290833Y-18849643D01*
X4319405Y-18849643D01*
X4338452Y-18859167D01*
X4347976Y-18878214D01*
X4347976Y-18982976D01*
X4347976Y-18878214D02*
X4357500Y-18859167D01*
X4376548Y-18849643D01*
X4405119Y-18849643D01*
X4424167Y-18859167D01*
X4433690Y-18878214D01*
X4433690Y-18982976D01*
X4528929Y-18982976D02*
X4528929Y-18849643D01*
X4528929Y-18868690D02*
X4538452Y-18859167D01*
X4557500Y-18849643D01*
X4586071Y-18849643D01*
X4605119Y-18859167D01*
X4614643Y-18878214D01*
X4614643Y-18982976D01*
X4614643Y-18878214D02*
X4624167Y-18859167D01*
X4643214Y-18849643D01*
X4671786Y-18849643D01*
X4690833Y-18859167D01*
X4700357Y-18878214D01*
X4700357Y-18982976D01*
X5090833Y-18773452D02*
X4919405Y-19030595D01*
X5347976Y-18782976D02*
X5367024Y-18782976D01*
X5386071Y-18792500D01*
X5395595Y-18802024D01*
X5405119Y-18821071D01*
X5414643Y-18859167D01*
X5414643Y-18906786D01*
X5405119Y-18944881D01*
X5395595Y-18963929D01*
X5386071Y-18973452D01*
X5367024Y-18982976D01*
X5347976Y-18982976D01*
X5328929Y-18973452D01*
X5319405Y-18963929D01*
X5309881Y-18944881D01*
X5300357Y-18906786D01*
X5300357Y-18859167D01*
X5309881Y-18821071D01*
X5319405Y-18802024D01*
X5328929Y-18792500D01*
X5347976Y-18782976D01*
X5500357Y-18963929D02*
X5509881Y-18973452D01*
X5500357Y-18982976D01*
X5490833Y-18973452D01*
X5500357Y-18963929D01*
X5500357Y-18982976D01*
X5633690Y-18782976D02*
X5652738Y-18782976D01*
X5671786Y-18792500D01*
X5681309Y-18802024D01*
X5690833Y-18821071D01*
X5700357Y-18859167D01*
X5700357Y-18906786D01*
X5690833Y-18944881D01*
X5681309Y-18963929D01*
X5671786Y-18973452D01*
X5652738Y-18982976D01*
X5633690Y-18982976D01*
X5614643Y-18973452D01*
X5605119Y-18963929D01*
X5595595Y-18944881D01*
X5586071Y-18906786D01*
X5586071Y-18859167D01*
X5595595Y-18821071D01*
X5605119Y-18802024D01*
X5614643Y-18792500D01*
X5633690Y-18782976D01*
X5814643Y-18868690D02*
X5795595Y-18859167D01*
X5786071Y-18849643D01*
X5776548Y-18830595D01*
X5776548Y-18821071D01*
X5786071Y-18802024D01*
X5795595Y-18792500D01*
X5814643Y-18782976D01*
X5852738Y-18782976D01*
X5871786Y-18792500D01*
X5881309Y-18802024D01*
X5890833Y-18821071D01*
X5890833Y-18830595D01*
X5881309Y-18849643D01*
X5871786Y-18859167D01*
X5852738Y-18868690D01*
X5814643Y-18868690D01*
X5795595Y-18878214D01*
X5786071Y-18887738D01*
X5776548Y-18906786D01*
X5776548Y-18944881D01*
X5786071Y-18963929D01*
X5795595Y-18973452D01*
X5814643Y-18982976D01*
X5852738Y-18982976D01*
X5871786Y-18973452D01*
X5881309Y-18963929D01*
X5890833Y-18944881D01*
X5890833Y-18906786D01*
X5881309Y-18887738D01*
X5871786Y-18878214D01*
X5852738Y-18868690D01*
X5967024Y-18802024D02*
X5976548Y-18792500D01*
X5995595Y-18782976D01*
X6043214Y-18782976D01*
X6062262Y-18792500D01*
X6071786Y-18802024D01*
X6081309Y-18821071D01*
X6081309Y-18840119D01*
X6071786Y-18868690D01*
X5957500Y-18982976D01*
X6081309Y-18982976D01*
X6147976Y-18782976D02*
X6281309Y-18782976D01*
X6195595Y-18982976D01*
X6347976Y-18782976D02*
X6347976Y-18821071D01*
X6424167Y-18782976D02*
X6424167Y-18821071D01*
X6719405Y-19059167D02*
X6709881Y-19049643D01*
X6690833Y-19021071D01*
X6681309Y-19002024D01*
X6671786Y-18973452D01*
X6662262Y-18925833D01*
X6662262Y-18887738D01*
X6671786Y-18840119D01*
X6681309Y-18811548D01*
X6690833Y-18792500D01*
X6709881Y-18763929D01*
X6719405Y-18754405D01*
X6881309Y-18849643D02*
X6881309Y-18982976D01*
X6833690Y-18773452D02*
X6786071Y-18916310D01*
X6909881Y-18916310D01*
X7138452Y-18982976D02*
X7138452Y-18782976D01*
X7224167Y-18982976D02*
X7224167Y-18878214D01*
X7214643Y-18859167D01*
X7195595Y-18849643D01*
X7167024Y-18849643D01*
X7147976Y-18859167D01*
X7138452Y-18868690D01*
X7347976Y-18982976D02*
X7328928Y-18973452D01*
X7319405Y-18963929D01*
X7309881Y-18944881D01*
X7309881Y-18887738D01*
X7319405Y-18868690D01*
X7328928Y-18859167D01*
X7347976Y-18849643D01*
X7376548Y-18849643D01*
X7395595Y-18859167D01*
X7405119Y-18868690D01*
X7414643Y-18887738D01*
X7414643Y-18944881D01*
X7405119Y-18963929D01*
X7395595Y-18973452D01*
X7376548Y-18982976D01*
X7347976Y-18982976D01*
X7528928Y-18982976D02*
X7509881Y-18973452D01*
X7500357Y-18954405D01*
X7500357Y-18782976D01*
X7681309Y-18973452D02*
X7662262Y-18982976D01*
X7624167Y-18982976D01*
X7605119Y-18973452D01*
X7595595Y-18954405D01*
X7595595Y-18878214D01*
X7605119Y-18859167D01*
X7624167Y-18849643D01*
X7662262Y-18849643D01*
X7681309Y-18859167D01*
X7690833Y-18878214D01*
X7690833Y-18897262D01*
X7595595Y-18916310D01*
X7767024Y-18973452D02*
X7786071Y-18982976D01*
X7824167Y-18982976D01*
X7843214Y-18973452D01*
X7852738Y-18954405D01*
X7852738Y-18944881D01*
X7843214Y-18925833D01*
X7824167Y-18916310D01*
X7795595Y-18916310D01*
X7776548Y-18906786D01*
X7767024Y-18887738D01*
X7767024Y-18878214D01*
X7776548Y-18859167D01*
X7795595Y-18849643D01*
X7824167Y-18849643D01*
X7843214Y-18859167D01*
X7919405Y-19059167D02*
X7928928Y-19049643D01*
X7947976Y-19021071D01*
X7957500Y-19002024D01*
X7967024Y-18973452D01*
X7976548Y-18925833D01*
X7976548Y-18887738D01*
X7967024Y-18840119D01*
X7957500Y-18811548D01*
X7947976Y-18792500D01*
X7928928Y-18763929D01*
X7919405Y-18754405D01*
X8281309Y-19059167D02*
X8271786Y-19049643D01*
X8252738Y-19021071D01*
X8243214Y-19002024D01*
X8233690Y-18973452D01*
X8224167Y-18925833D01*
X8224167Y-18887738D01*
X8233690Y-18840119D01*
X8243214Y-18811548D01*
X8252738Y-18792500D01*
X8271786Y-18763929D01*
X8281309Y-18754405D01*
X8357500Y-18849643D02*
X8357500Y-18982976D01*
X8357500Y-18868690D02*
X8367024Y-18859167D01*
X8386071Y-18849643D01*
X8414643Y-18849643D01*
X8433690Y-18859167D01*
X8443214Y-18878214D01*
X8443214Y-18982976D01*
X8567024Y-18982976D02*
X8547976Y-18973452D01*
X8538452Y-18963929D01*
X8528929Y-18944881D01*
X8528929Y-18887738D01*
X8538452Y-18868690D01*
X8547976Y-18859167D01*
X8567024Y-18849643D01*
X8595595Y-18849643D01*
X8614643Y-18859167D01*
X8624167Y-18868690D01*
X8633690Y-18887738D01*
X8633690Y-18944881D01*
X8624167Y-18963929D01*
X8614643Y-18973452D01*
X8595595Y-18982976D01*
X8567024Y-18982976D01*
X8690833Y-18849643D02*
X8767024Y-18849643D01*
X8719405Y-18782976D02*
X8719405Y-18954405D01*
X8728929Y-18973452D01*
X8747976Y-18982976D01*
X8767024Y-18982976D01*
X8986071Y-18849643D02*
X8986071Y-19049643D01*
X8986071Y-18859167D02*
X9005119Y-18849643D01*
X9043214Y-18849643D01*
X9062262Y-18859167D01*
X9071786Y-18868690D01*
X9081310Y-18887738D01*
X9081310Y-18944881D01*
X9071786Y-18963929D01*
X9062262Y-18973452D01*
X9043214Y-18982976D01*
X9005119Y-18982976D01*
X8986071Y-18973452D01*
X9195595Y-18982976D02*
X9176548Y-18973452D01*
X9167024Y-18954405D01*
X9167024Y-18782976D01*
X9357500Y-18982976D02*
X9357500Y-18878214D01*
X9347976Y-18859167D01*
X9328929Y-18849643D01*
X9290833Y-18849643D01*
X9271786Y-18859167D01*
X9357500Y-18973452D02*
X9338452Y-18982976D01*
X9290833Y-18982976D01*
X9271786Y-18973452D01*
X9262262Y-18954405D01*
X9262262Y-18935357D01*
X9271786Y-18916310D01*
X9290833Y-18906786D01*
X9338452Y-18906786D01*
X9357500Y-18897262D01*
X9424167Y-18849643D02*
X9500357Y-18849643D01*
X9452738Y-18782976D02*
X9452738Y-18954405D01*
X9462262Y-18973452D01*
X9481310Y-18982976D01*
X9500357Y-18982976D01*
X9643214Y-18973452D02*
X9624167Y-18982976D01*
X9586071Y-18982976D01*
X9567024Y-18973452D01*
X9557500Y-18954405D01*
X9557500Y-18878214D01*
X9567024Y-18859167D01*
X9586071Y-18849643D01*
X9624167Y-18849643D01*
X9643214Y-18859167D01*
X9652738Y-18878214D01*
X9652738Y-18897262D01*
X9557500Y-18916310D01*
X9824167Y-18982976D02*
X9824167Y-18782976D01*
X9824167Y-18973452D02*
X9805119Y-18982976D01*
X9767024Y-18982976D01*
X9747976Y-18973452D01*
X9738452Y-18963929D01*
X9728929Y-18944881D01*
X9728929Y-18887738D01*
X9738452Y-18868690D01*
X9747976Y-18859167D01*
X9767024Y-18849643D01*
X9805119Y-18849643D01*
X9824167Y-18859167D01*
X9900357Y-19059167D02*
X9909881Y-19049643D01*
X9928929Y-19021071D01*
X9938452Y-19002024D01*
X9947976Y-18973452D01*
X9957500Y-18925833D01*
X9957500Y-18887738D01*
X9947976Y-18840119D01*
X9938452Y-18811548D01*
X9928929Y-18792500D01*
X9909881Y-18763929D01*
X9900357Y-18754405D01*
M02*
