M48
; DRILL file {KiCad (6.0.2)} date Mon Jul 25 17:11:50 2022
; FORMAT={-:-/ absolute / inch / decimal}
; #@! TF.CreationDate,2022-07-25T17:11:50-05:00
; #@! TF.GenerationSoftware,Kicad,Pcbnew,(6.0.2)
; #@! TF.FileFunction,Plated,1,2,PTH
FMAT,2
INCH
; #@! TA.AperFunction,Plated,PTH,ViaDrill
T1C0.0157
; #@! TA.AperFunction,Plated,PTH,ViaDrill
T2C0.0180
; #@! TA.AperFunction,Plated,PTH,ComponentDrill
T3C0.0295
; #@! TA.AperFunction,Plated,PTH,ComponentDrill
T4C0.0315
; #@! TA.AperFunction,Plated,PTH,ComponentDrill
T5C0.0394
; #@! TA.AperFunction,Plated,PTH,ComponentDrill
T6C0.0433
; #@! TA.AperFunction,Plated,PTH,ComponentDrill
T7C0.0469
; #@! TA.AperFunction,Plated,PTH,ComponentDrill
T8C0.0472
; #@! TA.AperFunction,Plated,PTH,ComponentDrill
T9C0.0640
%
G90
G05
T1
X3.35Y-5.24
X3.355Y-4.45
X3.455Y-5.24
X3.48Y-4.45
T2
X1.925Y-5.345
X1.925Y-5.47
X2.76Y-4.858
X2.77Y-4.985
X2.835Y-4.861
X2.844Y-4.987
X2.898Y-5.225
X3.68Y-5.515
X3.98Y-3.965
X4.0Y-4.55
X4.14Y-5.615
X4.255Y-3.785
X4.2957Y-5.615
X4.2957Y-5.725
X4.53Y-3.785
X4.545Y-4.04
X4.96Y-3.965
T3
X2.78Y-3.425
X2.835Y-3.485
X2.89Y-3.425
T4
X1.65Y-3.69
X1.656Y-6.1406
X1.656Y-6.2194
X1.7287Y-3.69
X1.7347Y-6.1406
X1.7347Y-6.2194
X1.81Y-6.7013
X1.8135Y-6.1406
X1.8135Y-6.2194
X1.875Y-3.6466
X1.875Y-3.745
X1.91Y-6.7013
X2.468Y-3.8612
X2.468Y-3.9399
X2.47Y-3.6188
X2.47Y-3.6975
X2.478Y-4.1488
X2.478Y-4.2275
X2.55Y-5.2258
X2.55Y-5.3242
X2.595Y-5.02
X2.65Y-3.6
X2.65Y-3.6984
X2.6737Y-5.02
X2.678Y-3.8396
X2.678Y-3.938
X2.678Y-4.1488
X2.678Y-4.2472
X2.7Y-5.225
X2.7Y-5.325
X2.7Y-5.425
X2.7Y-5.525
X2.7Y-5.625
X2.7Y-5.725
X2.7Y-5.825
X2.785Y-3.615
X2.825Y-3.8396
X2.825Y-3.938
X2.825Y-4.1488
X2.825Y-4.2472
X2.8834Y-3.615
X2.9516Y-3.75
X2.9516Y-4.55
X3.0Y-3.8963
X3.0Y-3.975
X3.0Y-4.7
X3.0Y-4.7787
X3.0Y-5.225
X3.0Y-5.325
X3.0Y-5.425
X3.0Y-5.525
X3.0Y-5.625
X3.0Y-5.725
X3.0Y-5.825
X3.05Y-3.75
X3.05Y-4.55
X3.075Y-3.4463
X3.075Y-3.525
X3.145Y-5.32
X3.145Y-5.4184
X3.175Y-5.525
X3.175Y-5.825
X3.2Y-3.75
X3.2Y-3.85
X3.2Y-3.95
X3.2Y-4.05
X3.2Y-4.15
X3.2Y-4.25
X3.2Y-4.35
X3.2Y-4.55
X3.2Y-4.65
X3.2Y-4.75
X3.2Y-4.85
X3.2Y-4.95
X3.2Y-5.05
X3.2Y-5.15
X3.235Y-3.61
X3.25Y-5.325
X3.3334Y-3.61
X3.35Y-5.525
X3.35Y-5.825
X3.5Y-3.75
X3.5Y-3.85
X3.5Y-3.95
X3.5Y-4.05
X3.5Y-4.15
X3.5Y-4.25
X3.5Y-4.35
X3.5Y-4.55
X3.5Y-4.65
X3.5Y-4.75
X3.5Y-4.85
X3.5Y-4.95
X3.5Y-5.05
X3.5Y-5.15
X3.55Y-5.325
X3.655Y-4.055
X3.655Y-4.355
X3.66Y-3.7516
X3.66Y-3.85
X3.67Y-5.13
X3.67Y-5.43
X3.675Y-4.495
X3.675Y-4.795
X3.675Y-5.625
X3.675Y-5.925
X3.795Y-4.905
X3.795Y-5.205
X3.825Y-5.49
X3.825Y-5.625
X3.825Y-5.925
X3.83Y-4.795
X3.875Y-3.615
X3.875Y-3.7134
X3.875Y-3.85
X3.875Y-4.15
X3.8766Y-6.03
X3.88Y-4.355
X3.88Y-4.655
X3.925Y-4.905
X3.925Y-5.205
X3.9284Y-4.795
X3.975Y-5.625
X3.975Y-5.925
X3.975Y-6.03
X3.995Y-5.36
X4.035Y-5.235
X4.075Y-4.325
X4.08Y-3.545
X4.08Y-3.96
X4.08Y-4.495
X4.08Y-4.595
X4.08Y-4.695
X4.08Y-4.795
X4.08Y-4.895
X4.08Y-4.995
X4.08Y-5.095
X4.125Y-5.49
X4.125Y-5.725
X4.125Y-5.825
X4.125Y-5.925
X4.125Y-6.025
X4.125Y-6.125
X4.125Y-6.225
X4.125Y-6.325
X4.125Y-6.525
X4.125Y-6.725
X4.18Y-3.445
X4.18Y-3.86
X4.28Y-3.545
X4.28Y-3.96
X4.295Y-5.36
X4.335Y-5.235
X4.375Y-4.325
X4.38Y-4.495
X4.38Y-4.595
X4.38Y-4.695
X4.38Y-4.795
X4.38Y-4.895
X4.38Y-4.995
X4.38Y-5.095
X4.425Y-5.725
X4.425Y-5.825
X4.425Y-5.925
X4.425Y-6.025
X4.425Y-6.125
X4.425Y-6.225
X4.425Y-6.325
X4.425Y-6.525
X4.425Y-6.725
X4.445Y-5.24
X4.445Y-5.54
X4.535Y-4.805
X4.5616Y-6.025
X4.57Y-3.545
X4.57Y-3.96
X4.57Y-5.595
X4.57Y-5.895
X4.575Y-4.915
X4.575Y-5.215
X4.6Y-6.175
X4.6Y-6.475
X4.6Y-6.6
X4.6Y-6.9
X4.6016Y-5.405
X4.6334Y-4.805
X4.66Y-6.025
X4.67Y-3.445
X4.67Y-3.86
X4.675Y-4.385
X4.675Y-4.685
X4.7Y-5.405
X4.7Y-5.595
X4.7Y-5.895
X4.705Y-4.915
X4.705Y-5.215
X4.77Y-3.545
X4.77Y-3.96
X4.825Y-5.55
X4.825Y-5.85
X4.825Y-5.975
X4.825Y-6.275
X4.825Y-6.4
X4.825Y-6.7
X4.835Y-4.315
X4.835Y-4.615
T5
X1.37Y-4.43
X1.37Y-4.53
X1.37Y-4.63
X1.37Y-4.73
X1.37Y-4.83
X1.37Y-4.93
X1.37Y-5.03
X1.37Y-5.13
X1.37Y-5.23
X1.37Y-5.33
X1.37Y-5.43
X1.37Y-5.53
X1.37Y-5.63
X1.37Y-5.73
X1.37Y-5.83
X1.37Y-5.93
X1.37Y-6.03
X1.37Y-6.13
X1.37Y-6.23
X1.37Y-6.33
X1.37Y-6.43
X1.37Y-6.53
X1.37Y-6.63
X1.37Y-6.73
X1.37Y-6.83
X1.38Y-4.21
X1.48Y-4.21
X1.58Y-4.21
X1.5902Y-6.98
X1.66Y-6.53
X1.68Y-4.21
X1.6902Y-6.98
X1.78Y-4.21
X2.15Y-3.5
X2.15Y-3.62
X2.15Y-3.7981
X2.15Y-3.8947
X2.15Y-4.0147
X2.37Y-4.43
X2.37Y-4.53
X2.37Y-4.63
X2.37Y-4.73
X2.37Y-4.83
X2.37Y-4.93
X2.37Y-5.03
X2.37Y-5.13
X2.37Y-5.23
X2.37Y-5.33
X2.37Y-5.43
X2.37Y-5.53
X2.37Y-5.63
X2.37Y-5.73
X2.37Y-5.83
X2.37Y-5.93
X2.37Y-6.03
X2.37Y-6.13
X2.37Y-6.23
X2.37Y-6.33
X2.37Y-6.43
X2.37Y-6.53
X2.37Y-6.63
X2.37Y-6.73
X3.0Y-4.14
X3.0Y-5.09
X3.93Y-6.225
T6
X1.56Y-4.43
X1.56Y-4.53
X1.56Y-4.63
X1.56Y-4.73
X1.56Y-4.83
X1.56Y-4.93
X1.56Y-5.03
X1.56Y-5.13
X1.56Y-5.23
X1.56Y-5.33
X1.56Y-5.43
X1.56Y-5.53
X1.56Y-5.63
X1.56Y-5.73
X1.56Y-5.83
X1.56Y-5.93
X1.56Y-6.03
X1.56Y-6.13
X1.56Y-6.23
X1.56Y-6.33
X1.56Y-6.43
X1.56Y-6.53
X1.56Y-6.63
X1.56Y-6.73
X1.66Y-4.93
X1.66Y-6.63
X1.76Y-4.93
X1.86Y-4.93
X1.96Y-4.93
X2.0399Y-6.082
X2.0399Y-6.182
X2.0399Y-6.282
X2.0399Y-6.382
X2.0399Y-6.482
X2.06Y-4.93
X2.16Y-4.43
X2.16Y-4.53
X2.16Y-4.63
X2.16Y-4.73
X2.16Y-4.83
X2.16Y-4.93
X2.16Y-5.03
X2.16Y-5.13
X2.16Y-5.23
X2.16Y-5.33
X2.16Y-5.43
X2.16Y-5.53
X2.16Y-5.63
X2.16Y-5.73
X2.16Y-5.83
X2.16Y-5.93
X2.16Y-6.03
X2.16Y-6.13
X2.16Y-6.23
X2.16Y-6.33
X2.16Y-6.43
X2.16Y-6.53
X2.16Y-6.63
X2.16Y-6.73
X2.405Y-3.41
X2.505Y-3.41
X2.572Y-6.4614
X2.572Y-6.6386
X2.605Y-3.41
X2.828Y-6.4614
X2.828Y-6.6386
X3.032Y-6.0614
X3.032Y-6.2386
X3.032Y-6.4614
X3.032Y-6.6386
X3.032Y-6.8414
X3.032Y-7.0186
X3.288Y-6.0614
X3.288Y-6.2386
X3.288Y-6.4614
X3.288Y-6.6386
X3.288Y-6.8414
X3.288Y-7.0186
X3.472Y-6.4614
X3.472Y-6.6386
X3.728Y-6.4614
X3.728Y-6.6386
T7
X1.4308Y-3.84
X1.4308Y-3.94
X1.4308Y-4.04
X1.66Y-3.43
X1.76Y-3.43
T8
X3.275Y-3.43
X3.875Y-3.43
T9
X5.022Y-4.836
X5.025Y-5.772
X5.025Y-6.084
X5.025Y-4.992
X5.025Y-5.148
X5.025Y-5.304
X5.025Y-5.46
X5.025Y-5.616
X5.025Y-5.928
X5.025Y-6.24
T0
M30
