%TF.GenerationSoftware,KiCad,Pcbnew,(6.0.1)*%
%TF.CreationDate,2022-04-22T15:23:58+02:00*%
%TF.ProjectId,teensyv,7465656e-7379-4762-9e6b-696361645f70,rev?*%
%TF.SameCoordinates,Original*%
%TF.FileFunction,Soldermask,Top*%
%TF.FilePolarity,Negative*%
%FSLAX46Y46*%
G04 Gerber Fmt 4.6, Leading zero omitted, Abs format (unit mm)*
G04 Created by KiCad (PCBNEW (6.0.1)) date 2022-04-22 15:23:58*
%MOMM*%
%LPD*%
G01*
G04 APERTURE LIST*
G04 Aperture macros list*
%AMRoundRect*
0 Rectangle with rounded corners*
0 $1 Rounding radius*
0 $2 $3 $4 $5 $6 $7 $8 $9 X,Y pos of 4 corners*
0 Add a 4 corners polygon primitive as box body*
4,1,4,$2,$3,$4,$5,$6,$7,$8,$9,$2,$3,0*
0 Add four circle primitives for the rounded corners*
1,1,$1+$1,$2,$3*
1,1,$1+$1,$4,$5*
1,1,$1+$1,$6,$7*
1,1,$1+$1,$8,$9*
0 Add four rect primitives between the rounded corners*
20,1,$1+$1,$2,$3,$4,$5,0*
20,1,$1+$1,$4,$5,$6,$7,0*
20,1,$1+$1,$6,$7,$8,$9,0*
20,1,$1+$1,$8,$9,$2,$3,0*%
G04 Aperture macros list end*
%ADD10C,3.800000*%
%ADD11C,2.600000*%
%ADD12R,1.600000X1.600000*%
%ADD13O,1.600000X1.600000*%
%ADD14R,2.000000X1.905000*%
%ADD15O,2.000000X1.905000*%
%ADD16C,1.600000*%
%ADD17C,2.000000*%
%ADD18C,1.440000*%
%ADD19R,1.300000X1.300000*%
%ADD20C,1.300000*%
%ADD21C,2.100000*%
%ADD22RoundRect,0.250000X0.845000X-0.620000X0.845000X0.620000X-0.845000X0.620000X-0.845000X-0.620000X0*%
%ADD23O,2.190000X1.740000*%
%ADD24R,1.700000X1.700000*%
%ADD25O,1.700000X1.700000*%
%ADD26RoundRect,0.250000X-0.620000X-0.845000X0.620000X-0.845000X0.620000X0.845000X-0.620000X0.845000X0*%
%ADD27O,1.740000X2.190000*%
%ADD28O,2.000000X1.700000*%
%ADD29R,2.000000X1.700000*%
G04 APERTURE END LIST*
D10*
%TO.C,BL_GND1*%
X127558800Y-144755382D03*
D11*
X127558800Y-144755382D03*
%TD*%
D12*
%TO.C,IC4*%
X89652000Y-109728000D03*
D13*
X89652000Y-112268000D03*
X89652000Y-114808000D03*
X89652000Y-117348000D03*
X89652000Y-119888000D03*
X89652000Y-122428000D03*
X89652000Y-124968000D03*
X97272000Y-124968000D03*
X97272000Y-122428000D03*
X97272000Y-119888000D03*
X97272000Y-117348000D03*
X97272000Y-114808000D03*
X97272000Y-112268000D03*
X97272000Y-109728000D03*
%TD*%
D14*
%TO.C,U5*%
X69596000Y-91256800D03*
D15*
X69596000Y-88716800D03*
X69596000Y-86176800D03*
%TD*%
D12*
%TO.C,U4*%
X64516000Y-126120500D03*
D13*
X64516000Y-128660500D03*
X64516000Y-131200500D03*
X64516000Y-133740500D03*
X64516000Y-136280500D03*
X64516000Y-138820500D03*
X64516000Y-141360500D03*
X64516000Y-143900500D03*
X64516000Y-146440500D03*
X64516000Y-148980500D03*
X79248000Y-148980500D03*
X79248000Y-146440500D03*
X79248000Y-143900500D03*
X79248000Y-141360500D03*
X79248000Y-138820500D03*
X79248000Y-136280500D03*
X79248000Y-133740500D03*
X79248000Y-131200500D03*
X79248000Y-128660500D03*
X79248000Y-126120500D03*
%TD*%
D16*
%TO.C,R15*%
X102870000Y-178816000D03*
D13*
X102870000Y-171196000D03*
%TD*%
D17*
%TO.C,SW2*%
X83514000Y-173772000D03*
X77014000Y-173772000D03*
X77014000Y-178272000D03*
X83514000Y-178272000D03*
%TD*%
D16*
%TO.C,R21*%
X118364000Y-139090400D03*
D13*
X118364000Y-131470400D03*
%TD*%
D18*
%TO.C,RV1*%
X121158000Y-100584000D03*
X118618000Y-98044000D03*
X116078000Y-100584000D03*
%TD*%
D16*
%TO.C,R4*%
X89662000Y-153670000D03*
D13*
X97282000Y-153670000D03*
%TD*%
D12*
%TO.C,C18*%
X85070000Y-87436888D03*
D16*
X85070000Y-89436888D03*
%TD*%
D12*
%TO.C,IC6*%
X106934000Y-127508000D03*
D13*
X106934000Y-130048000D03*
X106934000Y-132588000D03*
X106934000Y-135128000D03*
X106934000Y-137668000D03*
X106934000Y-140208000D03*
X106934000Y-142748000D03*
X114554000Y-142748000D03*
X114554000Y-140208000D03*
X114554000Y-137668000D03*
X114554000Y-135128000D03*
X114554000Y-132588000D03*
X114554000Y-130048000D03*
X114554000Y-127508000D03*
%TD*%
D16*
%TO.C,R17*%
X122428000Y-158242000D03*
D13*
X122428000Y-150622000D03*
%TD*%
D16*
%TO.C,C12*%
X68021200Y-97525200D03*
X68021200Y-100025200D03*
%TD*%
%TO.C,R24*%
X102870000Y-168656000D03*
D13*
X102870000Y-161036000D03*
%TD*%
D17*
%TO.C,SW4*%
X94690000Y-164120000D03*
X88190000Y-164120000D03*
X94690000Y-168620000D03*
X88190000Y-168620000D03*
%TD*%
D19*
%TO.C,U2*%
X67564000Y-120502000D03*
D20*
X68834000Y-119232000D03*
X70104000Y-120502000D03*
%TD*%
D16*
%TO.C,R11*%
X114554000Y-123444000D03*
D13*
X106934000Y-123444000D03*
%TD*%
D17*
%TO.C,SW5*%
X77014000Y-153960000D03*
X83514000Y-153960000D03*
X83514000Y-158460000D03*
X77014000Y-158460000D03*
%TD*%
D16*
%TO.C,R23*%
X118364000Y-168656000D03*
D13*
X118364000Y-161036000D03*
%TD*%
D16*
%TO.C,C2*%
X73152000Y-120630000D03*
X73152000Y-118130000D03*
%TD*%
D12*
%TO.C,IC3*%
X89652000Y-130302000D03*
D13*
X89652000Y-132842000D03*
X89652000Y-135382000D03*
X89652000Y-137922000D03*
X89652000Y-140462000D03*
X89652000Y-143002000D03*
X89652000Y-145542000D03*
X97272000Y-145542000D03*
X97272000Y-143002000D03*
X97272000Y-140462000D03*
X97272000Y-137922000D03*
X97272000Y-135382000D03*
X97272000Y-132842000D03*
X97272000Y-130302000D03*
%TD*%
D21*
%TO.C,REF03*%
X36000000Y-178000000D03*
%TD*%
D12*
%TO.C,C4*%
X42732888Y-93726000D03*
D16*
X44732888Y-93726000D03*
%TD*%
%TO.C,R8*%
X102870000Y-131064000D03*
D13*
X102870000Y-123444000D03*
%TD*%
D12*
%TO.C,C20*%
X62738000Y-91917200D03*
D16*
X62738000Y-93917200D03*
%TD*%
D22*
%TO.C,J7*%
X36342000Y-102616000D03*
D23*
X36342000Y-100076000D03*
X36342000Y-97536000D03*
%TD*%
D12*
%TO.C,IC1*%
X106934000Y-158491000D03*
D13*
X106934000Y-161031000D03*
X106934000Y-163571000D03*
X106934000Y-166111000D03*
X106934000Y-168651000D03*
X106934000Y-171191000D03*
X106934000Y-173731000D03*
X114554000Y-173731000D03*
X114554000Y-171191000D03*
X114554000Y-168651000D03*
X114554000Y-166111000D03*
X114554000Y-163571000D03*
X114554000Y-161031000D03*
X114554000Y-158491000D03*
%TD*%
D16*
%TO.C,R20*%
X122428000Y-131826000D03*
D13*
X122428000Y-124206000D03*
%TD*%
D11*
%TO.C,Y_GND1*%
X127558800Y-171119018D03*
D10*
X127558800Y-171119018D03*
%TD*%
D16*
%TO.C,C7*%
X86340000Y-113538000D03*
X83840000Y-113538000D03*
%TD*%
D24*
%TO.C,J1*%
X60198000Y-170942000D03*
D25*
X60198000Y-168402000D03*
X60198000Y-165862000D03*
X60198000Y-163322000D03*
X60198000Y-160782000D03*
X60198000Y-158242000D03*
X60198000Y-155702000D03*
X60198000Y-153162000D03*
X60198000Y-150622000D03*
X60198000Y-148082000D03*
X60198000Y-145542000D03*
X60198000Y-143002000D03*
X60198000Y-140462000D03*
X60198000Y-137922000D03*
X60198000Y-135382000D03*
X60198000Y-132842000D03*
X60198000Y-130302000D03*
X60198000Y-127762000D03*
X60198000Y-125222000D03*
X60198000Y-122682000D03*
X60198000Y-120142000D03*
X60198000Y-117602000D03*
X60198000Y-115062000D03*
X60198000Y-112522000D03*
%TD*%
D24*
%TO.C,J9*%
X42931000Y-177292000D03*
D25*
X40391000Y-177292000D03*
%TD*%
D10*
%TO.C,RE_SIG1*%
X127558800Y-111800837D03*
D11*
X127558800Y-111800837D03*
%TD*%
D16*
%TO.C,R1*%
X106934000Y-110490000D03*
D13*
X114554000Y-110490000D03*
%TD*%
D12*
%TO.C,C5*%
X77022888Y-101346000D03*
D16*
X79022888Y-101346000D03*
%TD*%
%TO.C,C3*%
X48514000Y-91186000D03*
X48514000Y-93686000D03*
%TD*%
D26*
%TO.C,J6*%
X42164000Y-87122000D03*
D27*
X44704000Y-87122000D03*
%TD*%
D16*
%TO.C,R19*%
X122428000Y-118872000D03*
D13*
X122428000Y-111252000D03*
%TD*%
D16*
%TO.C,R29*%
X114554000Y-178562000D03*
D13*
X106934000Y-178562000D03*
%TD*%
D10*
%TO.C,RE_GND1*%
X127558800Y-118391746D03*
D11*
X127558800Y-118391746D03*
%TD*%
D16*
%TO.C,R7*%
X118364000Y-128778000D03*
D13*
X118364000Y-121158000D03*
%TD*%
D19*
%TO.C,U3*%
X76708000Y-107294000D03*
D20*
X77978000Y-106024000D03*
X79248000Y-107294000D03*
%TD*%
D16*
%TO.C,R22*%
X114554000Y-146812000D03*
D13*
X106934000Y-146812000D03*
%TD*%
D21*
%TO.C,REF02*%
X127000000Y-87500000D03*
%TD*%
D16*
%TO.C,R5*%
X118364000Y-110490000D03*
D13*
X118364000Y-118110000D03*
%TD*%
D16*
%TO.C,C1*%
X83058000Y-103866000D03*
X83058000Y-101366000D03*
%TD*%
%TO.C,R14*%
X102870000Y-150368000D03*
D13*
X102870000Y-157988000D03*
%TD*%
D16*
%TO.C,R3*%
X106934000Y-114808000D03*
D13*
X114554000Y-114808000D03*
%TD*%
D18*
%TO.C,RV4*%
X108712000Y-88362000D03*
X106172000Y-85822000D03*
X103632000Y-88362000D03*
%TD*%
D12*
%TO.C,C10*%
X62687200Y-98074088D03*
D16*
X62687200Y-100074088D03*
%TD*%
%TO.C,C17*%
X86340000Y-92964000D03*
X83840000Y-92964000D03*
%TD*%
D10*
%TO.C,Y_SIG1*%
X127558800Y-164528109D03*
D11*
X127558800Y-164528109D03*
%TD*%
D24*
%TO.C,J8*%
X97272000Y-84836000D03*
%TD*%
D16*
%TO.C,R13*%
X102870000Y-135128000D03*
D13*
X102870000Y-142748000D03*
%TD*%
D16*
%TO.C,R16*%
X118364000Y-178816000D03*
D13*
X118364000Y-171196000D03*
%TD*%
D17*
%TO.C,SW1*%
X71830000Y-164120000D03*
X65330000Y-164120000D03*
X65330000Y-168620000D03*
X71830000Y-168620000D03*
%TD*%
D10*
%TO.C,BL_SIG1*%
X127558800Y-138164473D03*
D11*
X127558800Y-138164473D03*
%TD*%
%TO.C,GR_SIG1*%
X127558800Y-124982655D03*
D10*
X127558800Y-124982655D03*
%TD*%
D12*
%TO.C,IC5*%
X89662000Y-88900000D03*
D13*
X89662000Y-91440000D03*
X89662000Y-93980000D03*
X89662000Y-96520000D03*
X89662000Y-99060000D03*
X89662000Y-101600000D03*
X89662000Y-104140000D03*
X97282000Y-104140000D03*
X97282000Y-101600000D03*
X97282000Y-99060000D03*
X97282000Y-96520000D03*
X97282000Y-93980000D03*
X97282000Y-91440000D03*
X97282000Y-88900000D03*
%TD*%
D16*
%TO.C,R18*%
X122428000Y-171450000D03*
D13*
X122428000Y-163830000D03*
%TD*%
D24*
%TO.C,J3*%
X34798000Y-112522000D03*
D25*
X34798000Y-115062000D03*
X34798000Y-117602000D03*
X34798000Y-120142000D03*
X34798000Y-122682000D03*
X34798000Y-125222000D03*
X34798000Y-127762000D03*
X34798000Y-130302000D03*
X34798000Y-132842000D03*
X34798000Y-135382000D03*
X34798000Y-137922000D03*
X34798000Y-140462000D03*
X34798000Y-143002000D03*
X34798000Y-145542000D03*
X34798000Y-148082000D03*
X34798000Y-150622000D03*
X34798000Y-153162000D03*
X34798000Y-155702000D03*
X34798000Y-158242000D03*
X34798000Y-160782000D03*
X34798000Y-163322000D03*
X34798000Y-165862000D03*
X34798000Y-168402000D03*
X34798000Y-170942000D03*
X34798000Y-173482000D03*
%TD*%
D18*
%TO.C,RV3*%
X121158000Y-88377000D03*
X118618000Y-85837000D03*
X116078000Y-88377000D03*
%TD*%
D16*
%TO.C,R28*%
X117195600Y-147828000D03*
D13*
X124815600Y-147828000D03*
%TD*%
D18*
%TO.C,RV2*%
X108712000Y-100584000D03*
X106172000Y-98044000D03*
X103632000Y-100584000D03*
%TD*%
D16*
%TO.C,R9*%
X122428000Y-136956800D03*
D13*
X122428000Y-144576800D03*
%TD*%
D16*
%TO.C,R25*%
X53594000Y-175260000D03*
D13*
X45974000Y-175260000D03*
%TD*%
D12*
%TO.C,U1*%
X54864000Y-170942000D03*
D16*
X54864000Y-168402000D03*
X54864000Y-165862000D03*
X54864000Y-163322000D03*
X54864000Y-160782000D03*
X54864000Y-158242000D03*
X54864000Y-155702000D03*
X54864000Y-153162000D03*
X54864000Y-150622000D03*
X54864000Y-148082000D03*
X54864000Y-145542000D03*
X54864000Y-143002000D03*
X54864000Y-140462000D03*
X54864000Y-137922000D03*
X54864000Y-135382000D03*
X54864000Y-132842000D03*
X54864000Y-130302000D03*
X54864000Y-127762000D03*
X54864000Y-125222000D03*
X54864000Y-122682000D03*
X54864000Y-120142000D03*
X54864000Y-117602000D03*
X54864000Y-115062000D03*
X54864000Y-112522000D03*
X39624000Y-112522000D03*
X39624000Y-115062000D03*
X39624000Y-117602000D03*
X39624000Y-120142000D03*
X39624000Y-122682000D03*
X39624000Y-125222000D03*
X39624000Y-127762000D03*
X39624000Y-130302000D03*
X39624000Y-132842000D03*
X39624000Y-135382000D03*
X39624000Y-137922000D03*
X39624000Y-140462000D03*
X39624000Y-143002000D03*
X39624000Y-145542000D03*
X39624000Y-148082000D03*
X39624000Y-150622000D03*
X39624000Y-153162000D03*
X39624000Y-155702000D03*
X39624000Y-158242000D03*
X39624000Y-160782000D03*
X39624000Y-163322000D03*
X39624000Y-165862000D03*
X39624000Y-168402000D03*
X39624000Y-170942000D03*
X42164000Y-168402000D03*
X52324000Y-125222000D03*
X49784000Y-125222000D03*
X47244000Y-125222000D03*
X44704000Y-125222000D03*
X42164000Y-125222000D03*
D12*
X51813200Y-164642800D03*
D16*
X51813200Y-162102800D03*
X51813200Y-159562800D03*
X51813200Y-157022800D03*
X51813200Y-154482800D03*
D19*
X42062400Y-157972000D03*
D20*
X44062400Y-157972000D03*
X46062400Y-157972000D03*
X46062400Y-155972000D03*
X44062400Y-155972000D03*
X42062400Y-155972000D03*
X45974000Y-170212000D03*
X48514000Y-170212000D03*
%TD*%
D12*
%TO.C,C15*%
X85090000Y-108010888D03*
D16*
X85090000Y-110010888D03*
%TD*%
D17*
%TO.C,SW3*%
X77014000Y-164120000D03*
X83514000Y-164120000D03*
X77014000Y-168620000D03*
X83514000Y-168620000D03*
%TD*%
D16*
%TO.C,C19*%
X61386400Y-86888000D03*
X63886400Y-86888000D03*
%TD*%
%TO.C,R30*%
X98806000Y-171196000D03*
D13*
X98806000Y-178816000D03*
%TD*%
D16*
%TO.C,R6*%
X89652000Y-149606000D03*
D13*
X97272000Y-149606000D03*
%TD*%
D16*
%TO.C,C13*%
X72339200Y-105379200D03*
X72339200Y-107879200D03*
%TD*%
%TO.C,C6*%
X64516000Y-120630000D03*
X64516000Y-118130000D03*
%TD*%
%TO.C,C8*%
X86360000Y-134112000D03*
X83860000Y-134112000D03*
%TD*%
%TO.C,R12*%
X106934000Y-150876000D03*
D13*
X114554000Y-150876000D03*
%TD*%
D21*
%TO.C,REF01*%
X36000000Y-87500000D03*
%TD*%
D28*
%TO.C,IC2*%
X53908200Y-92474900D03*
X53908200Y-95522900D03*
X53908200Y-100047900D03*
X53908200Y-102500900D03*
D29*
X53908200Y-105548900D03*
%TD*%
D16*
%TO.C,C11*%
X68021200Y-105379200D03*
X68021200Y-107879200D03*
%TD*%
%TO.C,C14*%
X72339200Y-97525200D03*
X72339200Y-100025200D03*
%TD*%
%TO.C,R10*%
X106934000Y-154686000D03*
D13*
X114554000Y-154686000D03*
%TD*%
D12*
%TO.C,C16*%
X85090000Y-128584888D03*
D16*
X85090000Y-130584888D03*
%TD*%
%TO.C,R2*%
X106934000Y-119126000D03*
D13*
X114554000Y-119126000D03*
%TD*%
D24*
%TO.C,J2*%
X45212000Y-106934000D03*
D25*
X42672000Y-106934000D03*
X40132000Y-106934000D03*
X37592000Y-106934000D03*
X35052000Y-106934000D03*
%TD*%
D21*
%TO.C,REF04*%
X127000000Y-178000000D03*
%TD*%
D10*
%TO.C,X_SIG1*%
X127558800Y-151346291D03*
D11*
X127558800Y-151346291D03*
%TD*%
D10*
%TO.C,GR_GND1*%
X127558800Y-131573564D03*
D11*
X127558800Y-131573564D03*
%TD*%
D12*
%TO.C,C9*%
X62941200Y-105379200D03*
D16*
X62941200Y-107379200D03*
%TD*%
D10*
%TO.C,X_GND1*%
X127558800Y-157937200D03*
D11*
X127558800Y-157937200D03*
%TD*%
M02*
