M48
; DRILL file {KiCad (6.0.1)} date Fri Apr 22 15:24:02 2022
; FORMAT={-:-/ absolute / metric / decimal}
; #@! TF.CreationDate,2022-04-22T15:24:02+02:00
; #@! TF.GenerationSoftware,Kicad,Pcbnew,(6.0.1)
; #@! TF.FileFunction,Plated,1,2,PTH
FMAT,2
METRIC
; #@! TA.AperFunction,Plated,PTH,ComponentDrill
T1C0.750
; #@! TA.AperFunction,Plated,PTH,ComponentDrill
T2C0.800
; #@! TA.AperFunction,Plated,PTH,ComponentDrill
T3C1.000
; #@! TA.AperFunction,Plated,PTH,ComponentDrill
T4C1.100
; #@! TA.AperFunction,Plated,PTH,ComponentDrill
T5C1.190
; #@! TA.AperFunction,Plated,PTH,ComponentDrill
T6C2.200
%
G90
G05
T1
X67.564Y-120.502
X68.834Y-119.232
X70.104Y-120.502
X76.708Y-107.294
X77.978Y-106.024
X79.248Y-107.294
T2
X42.062Y-155.972
X42.062Y-157.972
X42.733Y-93.726
X44.062Y-155.972
X44.062Y-157.972
X44.733Y-93.726
X45.974Y-170.212
X45.974Y-175.26
X46.062Y-155.972
X46.062Y-157.972
X48.514Y-91.186
X48.514Y-93.686
X48.514Y-170.212
X53.594Y-175.26
X61.386Y-86.888
X62.687Y-98.074
X62.687Y-100.074
X62.738Y-91.917
X62.738Y-93.917
X62.941Y-105.379
X62.941Y-107.379
X63.886Y-86.888
X64.516Y-118.13
X64.516Y-120.63
X64.516Y-126.12
X64.516Y-128.66
X64.516Y-131.201
X64.516Y-133.74
X64.516Y-136.28
X64.516Y-138.82
X64.516Y-141.361
X64.516Y-143.9
X64.516Y-146.44
X64.516Y-148.981
X68.021Y-97.525
X68.021Y-100.025
X68.021Y-105.379
X68.021Y-107.879
X72.339Y-97.525
X72.339Y-100.025
X72.339Y-105.379
X72.339Y-107.879
X73.152Y-118.13
X73.152Y-120.63
X77.023Y-101.346
X79.023Y-101.346
X79.248Y-126.12
X79.248Y-128.66
X79.248Y-131.201
X79.248Y-133.74
X79.248Y-136.28
X79.248Y-138.82
X79.248Y-141.361
X79.248Y-143.9
X79.248Y-146.44
X79.248Y-148.981
X83.058Y-101.366
X83.058Y-103.866
X83.84Y-92.964
X83.84Y-113.538
X83.86Y-134.112
X85.07Y-87.437
X85.07Y-89.437
X85.09Y-108.011
X85.09Y-110.011
X85.09Y-128.585
X85.09Y-130.585
X86.34Y-92.964
X86.34Y-113.538
X86.36Y-134.112
X89.652Y-109.728
X89.652Y-112.268
X89.652Y-114.808
X89.652Y-117.348
X89.652Y-119.888
X89.652Y-122.428
X89.652Y-124.968
X89.652Y-130.302
X89.652Y-132.842
X89.652Y-135.382
X89.652Y-137.922
X89.652Y-140.462
X89.652Y-143.002
X89.652Y-145.542
X89.652Y-149.606
X89.662Y-88.9
X89.662Y-91.44
X89.662Y-93.98
X89.662Y-96.52
X89.662Y-99.06
X89.662Y-101.6
X89.662Y-104.14
X89.662Y-153.67
X97.272Y-109.728
X97.272Y-112.268
X97.272Y-114.808
X97.272Y-117.348
X97.272Y-119.888
X97.272Y-122.428
X97.272Y-124.968
X97.272Y-130.302
X97.272Y-132.842
X97.272Y-135.382
X97.272Y-137.922
X97.272Y-140.462
X97.272Y-143.002
X97.272Y-145.542
X97.272Y-149.606
X97.282Y-88.9
X97.282Y-91.44
X97.282Y-93.98
X97.282Y-96.52
X97.282Y-99.06
X97.282Y-101.6
X97.282Y-104.14
X97.282Y-153.67
X98.806Y-171.196
X98.806Y-178.816
X102.87Y-123.444
X102.87Y-131.064
X102.87Y-135.128
X102.87Y-142.748
X102.87Y-150.368
X102.87Y-157.988
X102.87Y-161.036
X102.87Y-168.656
X102.87Y-171.196
X102.87Y-178.816
X103.632Y-88.362
X103.632Y-100.584
X106.172Y-85.822
X106.172Y-98.044
X106.934Y-110.49
X106.934Y-114.808
X106.934Y-119.126
X106.934Y-123.444
X106.934Y-127.508
X106.934Y-130.048
X106.934Y-132.588
X106.934Y-135.128
X106.934Y-137.668
X106.934Y-140.208
X106.934Y-142.748
X106.934Y-146.812
X106.934Y-150.876
X106.934Y-154.686
X106.934Y-158.491
X106.934Y-161.031
X106.934Y-163.571
X106.934Y-166.111
X106.934Y-168.651
X106.934Y-171.191
X106.934Y-173.731
X106.934Y-178.562
X108.712Y-88.362
X108.712Y-100.584
X114.554Y-110.49
X114.554Y-114.808
X114.554Y-119.126
X114.554Y-123.444
X114.554Y-127.508
X114.554Y-130.048
X114.554Y-132.588
X114.554Y-135.128
X114.554Y-137.668
X114.554Y-140.208
X114.554Y-142.748
X114.554Y-146.812
X114.554Y-150.876
X114.554Y-154.686
X114.554Y-158.491
X114.554Y-161.031
X114.554Y-163.571
X114.554Y-166.111
X114.554Y-168.651
X114.554Y-171.191
X114.554Y-173.731
X114.554Y-178.562
X116.078Y-88.377
X116.078Y-100.584
X117.196Y-147.828
X118.364Y-110.49
X118.364Y-118.11
X118.364Y-121.158
X118.364Y-128.778
X118.364Y-131.47
X118.364Y-139.09
X118.364Y-161.036
X118.364Y-168.656
X118.364Y-171.196
X118.364Y-178.816
X118.618Y-85.837
X118.618Y-98.044
X121.158Y-88.377
X121.158Y-100.584
X122.428Y-111.252
X122.428Y-118.872
X122.428Y-124.206
X122.428Y-131.826
X122.428Y-136.957
X122.428Y-144.577
X122.428Y-150.622
X122.428Y-158.242
X122.428Y-163.83
X122.428Y-171.45
X124.816Y-147.828
T3
X34.798Y-112.522
X34.798Y-115.062
X34.798Y-117.602
X34.798Y-120.142
X34.798Y-122.682
X34.798Y-125.222
X34.798Y-127.762
X34.798Y-130.302
X34.798Y-132.842
X34.798Y-135.382
X34.798Y-137.922
X34.798Y-140.462
X34.798Y-143.002
X34.798Y-145.542
X34.798Y-148.082
X34.798Y-150.622
X34.798Y-153.162
X34.798Y-155.702
X34.798Y-158.242
X34.798Y-160.782
X34.798Y-163.322
X34.798Y-165.862
X34.798Y-168.402
X34.798Y-170.942
X34.798Y-173.482
X35.052Y-106.934
X37.592Y-106.934
X40.132Y-106.934
X40.391Y-177.292
X42.672Y-106.934
X42.931Y-177.292
X45.212Y-106.934
X53.908Y-92.475
X53.908Y-95.523
X53.908Y-100.048
X53.908Y-102.501
X53.908Y-105.549
X60.198Y-112.522
X60.198Y-115.062
X60.198Y-117.602
X60.198Y-120.142
X60.198Y-122.682
X60.198Y-125.222
X60.198Y-127.762
X60.198Y-130.302
X60.198Y-132.842
X60.198Y-135.382
X60.198Y-137.922
X60.198Y-140.462
X60.198Y-143.002
X60.198Y-145.542
X60.198Y-148.082
X60.198Y-150.622
X60.198Y-153.162
X60.198Y-155.702
X60.198Y-158.242
X60.198Y-160.782
X60.198Y-163.322
X60.198Y-165.862
X60.198Y-168.402
X60.198Y-170.942
X97.272Y-84.836
T4
X39.624Y-112.522
X39.624Y-115.062
X39.624Y-117.602
X39.624Y-120.142
X39.624Y-122.682
X39.624Y-125.222
X39.624Y-127.762
X39.624Y-130.302
X39.624Y-132.842
X39.624Y-135.382
X39.624Y-137.922
X39.624Y-140.462
X39.624Y-143.002
X39.624Y-145.542
X39.624Y-148.082
X39.624Y-150.622
X39.624Y-153.162
X39.624Y-155.702
X39.624Y-158.242
X39.624Y-160.782
X39.624Y-163.322
X39.624Y-165.862
X39.624Y-168.402
X39.624Y-170.942
X42.164Y-125.222
X42.164Y-168.402
X44.704Y-125.222
X47.244Y-125.222
X49.784Y-125.222
X51.813Y-154.483
X51.813Y-157.023
X51.813Y-159.563
X51.813Y-162.103
X51.813Y-164.643
X52.324Y-125.222
X54.864Y-112.522
X54.864Y-115.062
X54.864Y-117.602
X54.864Y-120.142
X54.864Y-122.682
X54.864Y-125.222
X54.864Y-127.762
X54.864Y-130.302
X54.864Y-132.842
X54.864Y-135.382
X54.864Y-137.922
X54.864Y-140.462
X54.864Y-143.002
X54.864Y-145.542
X54.864Y-148.082
X54.864Y-150.622
X54.864Y-153.162
X54.864Y-155.702
X54.864Y-158.242
X54.864Y-160.782
X54.864Y-163.322
X54.864Y-165.862
X54.864Y-168.402
X54.864Y-170.942
X65.33Y-164.12
X65.33Y-168.62
X69.596Y-86.177
X69.596Y-88.717
X69.596Y-91.257
X71.83Y-164.12
X71.83Y-168.62
X77.014Y-153.96
X77.014Y-158.46
X77.014Y-164.12
X77.014Y-168.62
X77.014Y-173.772
X77.014Y-178.272
X83.514Y-153.96
X83.514Y-158.46
X83.514Y-164.12
X83.514Y-168.62
X83.514Y-173.772
X83.514Y-178.272
X88.19Y-164.12
X88.19Y-168.62
X94.69Y-164.12
X94.69Y-168.62
T5
X36.342Y-97.536
X36.342Y-100.076
X36.342Y-102.616
X42.164Y-87.122
X44.704Y-87.122
T6
X127.559Y-111.801
X127.559Y-118.392
X127.559Y-124.983
X127.559Y-131.574
X127.559Y-138.164
X127.559Y-144.755
X127.559Y-151.346
X127.559Y-157.937
X127.559Y-164.528
X127.559Y-171.119
T0
M30
