%TF.GenerationSoftware,KiCad,Pcbnew,(6.0.1)*%
%TF.CreationDate,2022-08-30T11:37:44+02:00*%
%TF.ProjectId,vstcm V3_0FC,76737463-6d20-4563-935f-3046432e6b69,rev?*%
%TF.SameCoordinates,Original*%
%TF.FileFunction,Soldermask,Top*%
%TF.FilePolarity,Negative*%
%FSLAX46Y46*%
G04 Gerber Fmt 4.6, Leading zero omitted, Abs format (unit mm)*
G04 Created by KiCad (PCBNEW (6.0.1)) date 2022-08-30 11:37:44*
%MOMM*%
%LPD*%
G01*
G04 APERTURE LIST*
G04 Aperture macros list*
%AMRoundRect*
0 Rectangle with rounded corners*
0 $1 Rounding radius*
0 $2 $3 $4 $5 $6 $7 $8 $9 X,Y pos of 4 corners*
0 Add a 4 corners polygon primitive as box body*
4,1,4,$2,$3,$4,$5,$6,$7,$8,$9,$2,$3,0*
0 Add four circle primitives for the rounded corners*
1,1,$1+$1,$2,$3*
1,1,$1+$1,$4,$5*
1,1,$1+$1,$6,$7*
1,1,$1+$1,$8,$9*
0 Add four rect primitives between the rounded corners*
20,1,$1+$1,$2,$3,$4,$5,0*
20,1,$1+$1,$4,$5,$6,$7,0*
20,1,$1+$1,$6,$7,$8,$9,0*
20,1,$1+$1,$8,$9,$2,$3,0*%
G04 Aperture macros list end*
%ADD10O,3.302000X2.540000*%
%ADD11R,1.600000X1.600000*%
%ADD12O,1.600000X1.600000*%
%ADD13R,1.905000X2.000000*%
%ADD14O,1.905000X2.000000*%
%ADD15C,1.600000*%
%ADD16C,2.000000*%
%ADD17C,1.440000*%
%ADD18C,2.100000*%
%ADD19R,1.700000X1.700000*%
%ADD20RoundRect,0.250000X0.845000X-0.620000X0.845000X0.620000X-0.845000X0.620000X-0.845000X-0.620000X0*%
%ADD21O,2.190000X1.740000*%
%ADD22O,1.700000X1.700000*%
%ADD23RoundRect,0.250000X-0.620000X-0.845000X0.620000X-0.845000X0.620000X0.845000X-0.620000X0.845000X0*%
%ADD24O,1.740000X2.190000*%
%ADD25R,1.300000X1.300000*%
%ADD26C,1.300000*%
%ADD27C,2.400000*%
%ADD28O,2.400000X2.400000*%
%ADD29O,2.000000X1.700000*%
%ADD30R,2.000000X1.700000*%
G04 APERTURE END LIST*
D10*
%TO.C,BL_GND1*%
X127635012Y-158496008D03*
%TD*%
D11*
%TO.C,IC4*%
X81280000Y-95250000D03*
D12*
X81280000Y-97790000D03*
X81280000Y-100330000D03*
X81280000Y-102870000D03*
X81280000Y-105410000D03*
X81280000Y-107950000D03*
X81280000Y-110490000D03*
X88900000Y-110490000D03*
X88900000Y-107950000D03*
X88900000Y-105410000D03*
X88900000Y-102870000D03*
X88900000Y-100330000D03*
X88900000Y-97790000D03*
X88900000Y-95250000D03*
%TD*%
D13*
%TO.C,U5*%
X61087000Y-86614000D03*
D14*
X63627000Y-86614000D03*
X66167000Y-86614000D03*
%TD*%
D15*
%TO.C,R15*%
X104775000Y-165735000D03*
D12*
X112395000Y-165735000D03*
%TD*%
D16*
%TO.C,SW2*%
X83514000Y-173772000D03*
X77014000Y-173772000D03*
X77014000Y-178272000D03*
X83514000Y-178272000D03*
%TD*%
D15*
%TO.C,R21*%
X122555000Y-170180000D03*
D12*
X122555000Y-162560000D03*
%TD*%
D17*
%TO.C,RV1*%
X121158000Y-100584000D03*
X118618000Y-98044000D03*
X116078000Y-100584000D03*
%TD*%
D15*
%TO.C,R4*%
X101473000Y-136144000D03*
D12*
X109093000Y-136144000D03*
%TD*%
D11*
%TO.C,C18*%
X65913000Y-127508000D03*
D15*
X67913000Y-127508000D03*
%TD*%
%TO.C,C22*%
X115189000Y-122047000D03*
X117689000Y-122047000D03*
%TD*%
%TO.C,R17*%
X122809000Y-109601000D03*
D12*
X122809000Y-117221000D03*
%TD*%
D15*
%TO.C,C12*%
X68021200Y-97525200D03*
X68021200Y-100025200D03*
%TD*%
%TO.C,R24*%
X85090000Y-147955000D03*
D12*
X85090000Y-140335000D03*
%TD*%
D16*
%TO.C,SW4*%
X94690000Y-164120000D03*
X88190000Y-164120000D03*
X94690000Y-168620000D03*
X88190000Y-168620000D03*
%TD*%
D15*
%TO.C,R11*%
X118745000Y-118999000D03*
D12*
X118745000Y-111379000D03*
%TD*%
D16*
%TO.C,SW5*%
X77014000Y-153960000D03*
X83514000Y-153960000D03*
X83514000Y-158460000D03*
X77014000Y-158460000D03*
%TD*%
D15*
%TO.C,R23*%
X93218000Y-137922000D03*
D12*
X93218000Y-130302000D03*
%TD*%
D15*
%TO.C,C2*%
X79883000Y-137628000D03*
X79883000Y-135128000D03*
%TD*%
D11*
%TO.C,IC3*%
X68580000Y-132715000D03*
D12*
X68580000Y-135255000D03*
X68580000Y-137795000D03*
X68580000Y-140335000D03*
X68580000Y-142875000D03*
X68580000Y-145415000D03*
X68580000Y-147955000D03*
X76200000Y-147955000D03*
X76200000Y-145415000D03*
X76200000Y-142875000D03*
X76200000Y-140335000D03*
X76200000Y-137795000D03*
X76200000Y-135255000D03*
X76200000Y-132715000D03*
%TD*%
D18*
%TO.C,REF03*%
X36000000Y-178000000D03*
%TD*%
D11*
%TO.C,C4*%
X41910000Y-93726000D03*
D15*
X43910000Y-93726000D03*
%TD*%
%TO.C,R8*%
X99695000Y-124587000D03*
D12*
X99695000Y-132207000D03*
%TD*%
D19*
%TO.C,TP1*%
X42164000Y-165862000D03*
%TD*%
D11*
%TO.C,C20*%
X62738000Y-91917200D03*
D15*
X62738000Y-93917200D03*
%TD*%
D20*
%TO.C,J7*%
X36342000Y-102616000D03*
D21*
X36342000Y-100076000D03*
X36342000Y-97536000D03*
%TD*%
D11*
%TO.C,IC1*%
X104775000Y-145415000D03*
D12*
X104775000Y-147955000D03*
X104775000Y-150495000D03*
X104775000Y-153035000D03*
X104775000Y-155575000D03*
X104775000Y-158115000D03*
X104775000Y-160655000D03*
X112395000Y-160655000D03*
X112395000Y-158115000D03*
X112395000Y-155575000D03*
X112395000Y-153035000D03*
X112395000Y-150495000D03*
X112395000Y-147955000D03*
X112395000Y-145415000D03*
%TD*%
D15*
%TO.C,R20*%
X122555000Y-140970000D03*
D12*
X122555000Y-148590000D03*
%TD*%
D10*
%TO.C,Y_GND1*%
X127635012Y-134721609D03*
%TD*%
D15*
%TO.C,C27*%
X82169000Y-91694000D03*
X84669000Y-91694000D03*
%TD*%
%TO.C,C7*%
X64770000Y-132735000D03*
X64770000Y-135235000D03*
%TD*%
D19*
%TO.C,J1*%
X60198000Y-170942000D03*
D22*
X60198000Y-168402000D03*
X60198000Y-165862000D03*
X60198000Y-163322000D03*
X60198000Y-160782000D03*
X60198000Y-158242000D03*
X60198000Y-155702000D03*
X60198000Y-153162000D03*
X60198000Y-150622000D03*
X60198000Y-148082000D03*
X60198000Y-145542000D03*
X60198000Y-143002000D03*
X60198000Y-140462000D03*
X60198000Y-137922000D03*
X60198000Y-135382000D03*
X60198000Y-132842000D03*
X60198000Y-130302000D03*
X60198000Y-127762000D03*
X60198000Y-125222000D03*
X60198000Y-122682000D03*
X60198000Y-120142000D03*
X60198000Y-117602000D03*
X60198000Y-115062000D03*
X60198000Y-112522000D03*
%TD*%
D19*
%TO.C,J9*%
X42931000Y-177292000D03*
D22*
X40391000Y-177292000D03*
%TD*%
D15*
%TO.C,C24*%
X115864000Y-153035000D03*
X118364000Y-153035000D03*
%TD*%
D10*
%TO.C,RE_SIG1*%
X127635012Y-138684009D03*
%TD*%
D15*
%TO.C,R1*%
X102489000Y-132969000D03*
D12*
X110109000Y-132969000D03*
%TD*%
D11*
%TO.C,C5*%
X78105000Y-87535000D03*
D15*
X78105000Y-89535000D03*
%TD*%
%TO.C,C3*%
X47625000Y-92623000D03*
X47625000Y-95123000D03*
%TD*%
D23*
%TO.C,J6*%
X42164000Y-87122000D03*
D24*
X44704000Y-87122000D03*
%TD*%
D15*
%TO.C,R27*%
X119380000Y-149733000D03*
D12*
X119380000Y-142113000D03*
%TD*%
D15*
%TO.C,R19*%
X122555000Y-159385000D03*
D12*
X122555000Y-151765000D03*
%TD*%
D15*
%TO.C,R29*%
X112395000Y-170815000D03*
D12*
X104775000Y-170815000D03*
%TD*%
D10*
%TO.C,RE_GND1*%
X127635012Y-142646408D03*
%TD*%
D15*
%TO.C,R7*%
X112903000Y-140716000D03*
D12*
X112903000Y-133096000D03*
%TD*%
D25*
%TO.C,U3*%
X73406000Y-86995000D03*
D26*
X72009000Y-88519000D03*
X70612000Y-86995000D03*
%TD*%
D15*
%TO.C,R22*%
X97155000Y-150495000D03*
D12*
X97155000Y-142875000D03*
%TD*%
D19*
%TO.C,TP3*%
X76200000Y-105156000D03*
%TD*%
D18*
%TO.C,REF02*%
X127000000Y-87500000D03*
%TD*%
D15*
%TO.C,R31*%
X116078000Y-142113000D03*
D12*
X116078000Y-149733000D03*
%TD*%
D15*
%TO.C,R5*%
X98552000Y-118237000D03*
D12*
X98552000Y-110617000D03*
%TD*%
D15*
%TO.C,C1*%
X70739000Y-91821000D03*
X73239000Y-91821000D03*
%TD*%
%TO.C,R25*%
X116205000Y-124841000D03*
D12*
X116205000Y-132461000D03*
%TD*%
D15*
%TO.C,R14*%
X80645000Y-147955000D03*
D12*
X80645000Y-140335000D03*
%TD*%
D15*
%TO.C,R3*%
X119507000Y-132461000D03*
D12*
X119507000Y-124841000D03*
%TD*%
D17*
%TO.C,RV4*%
X108712000Y-90043000D03*
X106172000Y-87503000D03*
X103632000Y-90043000D03*
%TD*%
D11*
%TO.C,C10*%
X62687200Y-98074088D03*
D15*
X62687200Y-100074088D03*
%TD*%
%TO.C,C17*%
X77470000Y-95250000D03*
X74970000Y-95250000D03*
%TD*%
D10*
%TO.C,Y_SIG1*%
X127635012Y-130759208D03*
%TD*%
D19*
%TO.C,J8*%
X76200000Y-129286000D03*
%TD*%
D15*
%TO.C,C23*%
X100965000Y-153162000D03*
X98465000Y-153162000D03*
%TD*%
%TO.C,R13*%
X93345000Y-121793000D03*
D12*
X93345000Y-114173000D03*
%TD*%
D15*
%TO.C,R16*%
X116840000Y-164465000D03*
D12*
X116840000Y-156845000D03*
%TD*%
D11*
%TO.C,IC6*%
X103632000Y-114173000D03*
D12*
X103632000Y-116713000D03*
X103632000Y-119253000D03*
X103632000Y-121793000D03*
X103632000Y-124333000D03*
X103632000Y-126873000D03*
X103632000Y-129413000D03*
X111252000Y-129413000D03*
X111252000Y-126873000D03*
X111252000Y-124333000D03*
X111252000Y-121793000D03*
X111252000Y-119253000D03*
X111252000Y-116713000D03*
X111252000Y-114173000D03*
%TD*%
D16*
%TO.C,SW1*%
X71830000Y-164120000D03*
X65330000Y-164120000D03*
X65330000Y-168620000D03*
X71830000Y-168620000D03*
%TD*%
D10*
%TO.C,BL_SIG1*%
X127635000Y-154533609D03*
%TD*%
D15*
%TO.C,R26*%
X96393000Y-124587000D03*
D12*
X96393000Y-132207000D03*
%TD*%
D10*
%TO.C,GR_SIG1*%
X127635000Y-146608809D03*
%TD*%
D11*
%TO.C,IC5*%
X81280000Y-115570000D03*
D12*
X81280000Y-118110000D03*
X81280000Y-120650000D03*
X81280000Y-123190000D03*
X81280000Y-125730000D03*
X81280000Y-128270000D03*
X81280000Y-130810000D03*
X88900000Y-130810000D03*
X88900000Y-128270000D03*
X88900000Y-125730000D03*
X88900000Y-123190000D03*
X88900000Y-120650000D03*
X88900000Y-118110000D03*
X88900000Y-115570000D03*
%TD*%
D15*
%TO.C,R18*%
X103505000Y-109855000D03*
D12*
X111125000Y-109855000D03*
%TD*%
D19*
%TO.C,J3*%
X34798000Y-112522000D03*
D22*
X34798000Y-115062000D03*
X34798000Y-117602000D03*
X34798000Y-120142000D03*
X34798000Y-122682000D03*
X34798000Y-125222000D03*
X34798000Y-127762000D03*
X34798000Y-130302000D03*
X34798000Y-132842000D03*
X34798000Y-135382000D03*
X34798000Y-137922000D03*
X34798000Y-140462000D03*
X34798000Y-143002000D03*
X34798000Y-145542000D03*
X34798000Y-148082000D03*
X34798000Y-150622000D03*
X34798000Y-153162000D03*
X34798000Y-155702000D03*
X34798000Y-158242000D03*
X34798000Y-160782000D03*
X34798000Y-163322000D03*
X34798000Y-165862000D03*
X34798000Y-168402000D03*
X34798000Y-170942000D03*
X34798000Y-173482000D03*
%TD*%
D17*
%TO.C,RV3*%
X121158000Y-90043000D03*
X118618000Y-87503000D03*
X116078000Y-90043000D03*
%TD*%
D15*
%TO.C,R28*%
X93345000Y-150495000D03*
D12*
X93345000Y-142875000D03*
%TD*%
D17*
%TO.C,RV2*%
X108712000Y-100584000D03*
X106172000Y-98044000D03*
X103632000Y-100584000D03*
%TD*%
D15*
%TO.C,R9*%
X98425000Y-97790000D03*
D12*
X98425000Y-105410000D03*
%TD*%
D27*
%TO.C,L1*%
X83185000Y-87122000D03*
D28*
X98425000Y-87122000D03*
%TD*%
D11*
%TO.C,U1*%
X54864000Y-170942000D03*
D15*
X54864000Y-168402000D03*
X54864000Y-165862000D03*
X54864000Y-163322000D03*
X54864000Y-160782000D03*
X54864000Y-158242000D03*
X54864000Y-155702000D03*
X54864000Y-153162000D03*
X54864000Y-150622000D03*
X54864000Y-148082000D03*
X54864000Y-145542000D03*
X54864000Y-143002000D03*
X54864000Y-140462000D03*
X54864000Y-137922000D03*
X54864000Y-135382000D03*
X54864000Y-132842000D03*
X54864000Y-130302000D03*
X54864000Y-127762000D03*
X54864000Y-125222000D03*
X54864000Y-122682000D03*
X54864000Y-120142000D03*
X54864000Y-117602000D03*
X54864000Y-115062000D03*
X54864000Y-112522000D03*
X39624000Y-112522000D03*
X39624000Y-115062000D03*
X39624000Y-117602000D03*
X39624000Y-120142000D03*
X39624000Y-122682000D03*
X39624000Y-125222000D03*
X39624000Y-127762000D03*
X39624000Y-130302000D03*
X39624000Y-132842000D03*
X39624000Y-135382000D03*
X39624000Y-137922000D03*
X39624000Y-140462000D03*
X39624000Y-143002000D03*
X39624000Y-145542000D03*
X39624000Y-148082000D03*
X39624000Y-150622000D03*
X39624000Y-153162000D03*
X39624000Y-155702000D03*
X39624000Y-158242000D03*
X39624000Y-160782000D03*
X39624000Y-163322000D03*
X39624000Y-165862000D03*
X39624000Y-168402000D03*
X39624000Y-170942000D03*
X42164000Y-168402000D03*
X52324000Y-125222000D03*
X49784000Y-125222000D03*
X47244000Y-125222000D03*
X44704000Y-125222000D03*
X42164000Y-125222000D03*
D11*
X51813200Y-164642800D03*
D15*
X51813200Y-162102800D03*
X51813200Y-159562800D03*
X51813200Y-157022800D03*
X51813200Y-154482800D03*
D25*
X42062400Y-157972000D03*
D26*
X44062400Y-157972000D03*
X46062400Y-157972000D03*
X46062400Y-155972000D03*
X44062400Y-155972000D03*
X42062400Y-155972000D03*
X45974000Y-170212000D03*
X48514000Y-170212000D03*
%TD*%
D11*
%TO.C,C15*%
X76200000Y-98965000D03*
D15*
X76200000Y-100965000D03*
%TD*%
D16*
%TO.C,SW3*%
X77014000Y-164120000D03*
X83514000Y-164120000D03*
X77014000Y-168620000D03*
X83514000Y-168620000D03*
%TD*%
D15*
%TO.C,C21*%
X99782000Y-121793000D03*
X97282000Y-121793000D03*
%TD*%
D19*
%TO.C,TP2*%
X99822000Y-158115000D03*
%TD*%
D15*
%TO.C,C19*%
X67310000Y-91440000D03*
X67310000Y-93940000D03*
%TD*%
%TO.C,R30*%
X116840000Y-167640000D03*
D12*
X116840000Y-175260000D03*
%TD*%
D15*
%TO.C,C26*%
X119380000Y-137287000D03*
X116880000Y-137287000D03*
%TD*%
%TO.C,R6*%
X97155000Y-139446000D03*
D12*
X104775000Y-139446000D03*
%TD*%
D15*
%TO.C,C13*%
X71755000Y-105379200D03*
X71755000Y-107879200D03*
%TD*%
%TO.C,C6*%
X98425000Y-91821000D03*
X98425000Y-94321000D03*
%TD*%
%TO.C,C8*%
X77470000Y-115570000D03*
X74970000Y-115570000D03*
%TD*%
%TO.C,R12*%
X100965000Y-142875000D03*
D12*
X100965000Y-150495000D03*
%TD*%
D18*
%TO.C,REF01*%
X36000000Y-87500000D03*
%TD*%
D29*
%TO.C,IC2*%
X54610000Y-88900000D03*
X54610000Y-91948000D03*
X54610000Y-96473000D03*
X54610000Y-98926000D03*
D30*
X54610000Y-101974000D03*
%TD*%
D15*
%TO.C,C25*%
X92964000Y-97790000D03*
X92964000Y-95290000D03*
%TD*%
%TO.C,C11*%
X68021200Y-105379200D03*
X68021200Y-107879200D03*
%TD*%
%TO.C,C14*%
X71755000Y-97525200D03*
X71755000Y-100025200D03*
%TD*%
%TO.C,R10*%
X82550000Y-135255000D03*
D12*
X90170000Y-135255000D03*
%TD*%
D11*
%TO.C,C16*%
X76200000Y-119380000D03*
D15*
X76200000Y-121380000D03*
%TD*%
%TO.C,R2*%
X92837000Y-102997000D03*
D12*
X92837000Y-110617000D03*
%TD*%
D19*
%TO.C,J2*%
X45212000Y-106934000D03*
D22*
X42672000Y-106934000D03*
X40132000Y-106934000D03*
X37592000Y-106934000D03*
X35052000Y-106934000D03*
%TD*%
D18*
%TO.C,REF04*%
X127000000Y-178000000D03*
%TD*%
D10*
%TO.C,X_SIG1*%
X127558812Y-122834408D03*
%TD*%
%TO.C,GR_GND1*%
X127635012Y-150571208D03*
%TD*%
D11*
%TO.C,C9*%
X62941200Y-105379200D03*
D15*
X62941200Y-107379200D03*
%TD*%
D10*
%TO.C,X_GND1*%
X127635012Y-126796809D03*
%TD*%
M02*
