M48
; DRILL file {KiCad (6.0.1)} date Tue Aug 30 11:37:50 2022
; FORMAT={-:-/ absolute / metric / decimal}
; #@! TF.CreationDate,2022-08-30T11:37:50+02:00
; #@! TF.GenerationSoftware,Kicad,Pcbnew,(6.0.1)
; #@! TF.FileFunction,Plated,1,2,PTH
FMAT,2
METRIC
; #@! TA.AperFunction,Plated,PTH,ViaDrill
T1C0.400
; #@! TA.AperFunction,Plated,PTH,ViaDrill
T2C0.457
; #@! TA.AperFunction,Plated,PTH,ComponentDrill
T3C0.750
; #@! TA.AperFunction,Plated,PTH,ComponentDrill
T4C0.800
; #@! TA.AperFunction,Plated,PTH,ComponentDrill
T5C1.000
; #@! TA.AperFunction,Plated,PTH,ComponentDrill
T6C1.100
; #@! TA.AperFunction,Plated,PTH,ComponentDrill
T7C1.190
; #@! TA.AperFunction,Plated,PTH,ComponentDrill
T8C1.200
; #@! TA.AperFunction,Plated,PTH,ComponentDrill
T9C1.626
%
G90
G05
T1
X85.09Y-133.096
X85.217Y-113.03
X87.757Y-133.096
X88.392Y-113.03
T2
X48.895Y-135.763
X48.895Y-138.938
X70.104Y-123.393
X70.358Y-126.619
X72.009Y-123.469
X72.238Y-126.67
X73.609Y-132.715
X93.472Y-140.081
X101.092Y-100.711
X101.6Y-115.57
X105.156Y-142.621
X108.077Y-96.139
X109.112Y-142.621
X109.112Y-145.415
X115.062Y-96.139
X115.443Y-102.616
X125.984Y-100.711
T3
X70.612Y-86.995
X72.009Y-88.519
X73.406Y-86.995
T4
X41.91Y-93.726
X42.062Y-155.972
X42.062Y-157.972
X43.91Y-93.726
X44.062Y-155.972
X44.062Y-157.972
X45.974Y-170.212
X46.062Y-155.972
X46.062Y-157.972
X47.625Y-92.623
X47.625Y-95.123
X48.514Y-170.212
X62.687Y-98.074
X62.687Y-100.074
X62.738Y-91.917
X62.738Y-93.917
X62.941Y-105.379
X62.941Y-107.379
X64.77Y-132.735
X64.77Y-135.235
X65.913Y-127.508
X67.31Y-91.44
X67.31Y-93.94
X67.913Y-127.508
X68.021Y-97.525
X68.021Y-100.025
X68.021Y-105.379
X68.021Y-107.879
X68.58Y-132.715
X68.58Y-135.255
X68.58Y-137.795
X68.58Y-140.335
X68.58Y-142.875
X68.58Y-145.415
X68.58Y-147.955
X70.739Y-91.821
X71.755Y-97.525
X71.755Y-100.025
X71.755Y-105.379
X71.755Y-107.879
X73.239Y-91.821
X74.97Y-95.25
X74.97Y-115.57
X76.2Y-98.965
X76.2Y-100.965
X76.2Y-119.38
X76.2Y-121.38
X76.2Y-132.715
X76.2Y-135.255
X76.2Y-137.795
X76.2Y-140.335
X76.2Y-142.875
X76.2Y-145.415
X76.2Y-147.955
X77.47Y-95.25
X77.47Y-115.57
X78.105Y-87.535
X78.105Y-89.535
X79.883Y-135.128
X79.883Y-137.628
X80.645Y-140.335
X80.645Y-147.955
X81.28Y-95.25
X81.28Y-97.79
X81.28Y-100.33
X81.28Y-102.87
X81.28Y-105.41
X81.28Y-107.95
X81.28Y-110.49
X81.28Y-115.57
X81.28Y-118.11
X81.28Y-120.65
X81.28Y-123.19
X81.28Y-125.73
X81.28Y-128.27
X81.28Y-130.81
X82.169Y-91.694
X82.55Y-135.255
X84.669Y-91.694
X85.09Y-140.335
X85.09Y-147.955
X88.9Y-95.25
X88.9Y-97.79
X88.9Y-100.33
X88.9Y-102.87
X88.9Y-105.41
X88.9Y-107.95
X88.9Y-110.49
X88.9Y-115.57
X88.9Y-118.11
X88.9Y-120.65
X88.9Y-123.19
X88.9Y-125.73
X88.9Y-128.27
X88.9Y-130.81
X90.17Y-135.255
X92.837Y-102.997
X92.837Y-110.617
X92.964Y-95.29
X92.964Y-97.79
X93.218Y-130.302
X93.218Y-137.922
X93.345Y-114.173
X93.345Y-121.793
X93.345Y-142.875
X93.345Y-150.495
X96.393Y-124.587
X96.393Y-132.207
X97.155Y-139.446
X97.155Y-142.875
X97.155Y-150.495
X97.282Y-121.793
X98.425Y-91.821
X98.425Y-94.321
X98.425Y-97.79
X98.425Y-105.41
X98.465Y-153.162
X98.552Y-110.617
X98.552Y-118.237
X99.695Y-124.587
X99.695Y-132.207
X99.782Y-121.793
X100.965Y-142.875
X100.965Y-150.495
X100.965Y-153.162
X101.473Y-136.144
X102.489Y-132.969
X103.505Y-109.855
X103.632Y-90.043
X103.632Y-100.584
X103.632Y-114.173
X103.632Y-116.713
X103.632Y-119.253
X103.632Y-121.793
X103.632Y-124.333
X103.632Y-126.873
X103.632Y-129.413
X104.775Y-139.446
X104.775Y-145.415
X104.775Y-147.955
X104.775Y-150.495
X104.775Y-153.035
X104.775Y-155.575
X104.775Y-158.115
X104.775Y-160.655
X104.775Y-165.735
X104.775Y-170.815
X106.172Y-87.503
X106.172Y-98.044
X108.712Y-90.043
X108.712Y-100.584
X109.093Y-136.144
X110.109Y-132.969
X111.125Y-109.855
X111.252Y-114.173
X111.252Y-116.713
X111.252Y-119.253
X111.252Y-121.793
X111.252Y-124.333
X111.252Y-126.873
X111.252Y-129.413
X112.395Y-145.415
X112.395Y-147.955
X112.395Y-150.495
X112.395Y-153.035
X112.395Y-155.575
X112.395Y-158.115
X112.395Y-160.655
X112.395Y-165.735
X112.395Y-170.815
X112.903Y-133.096
X112.903Y-140.716
X115.189Y-122.047
X115.864Y-153.035
X116.078Y-90.043
X116.078Y-100.584
X116.078Y-142.113
X116.078Y-149.733
X116.205Y-124.841
X116.205Y-132.461
X116.84Y-156.845
X116.84Y-164.465
X116.84Y-167.64
X116.84Y-175.26
X116.88Y-137.287
X117.689Y-122.047
X118.364Y-153.035
X118.618Y-87.503
X118.618Y-98.044
X118.745Y-111.379
X118.745Y-118.999
X119.38Y-137.287
X119.38Y-142.113
X119.38Y-149.733
X119.507Y-124.841
X119.507Y-132.461
X121.158Y-90.043
X121.158Y-100.584
X122.555Y-140.97
X122.555Y-148.59
X122.555Y-151.765
X122.555Y-159.385
X122.555Y-162.56
X122.555Y-170.18
X122.809Y-109.601
X122.809Y-117.221
T5
X34.798Y-112.522
X34.798Y-115.062
X34.798Y-117.602
X34.798Y-120.142
X34.798Y-122.682
X34.798Y-125.222
X34.798Y-127.762
X34.798Y-130.302
X34.798Y-132.842
X34.798Y-135.382
X34.798Y-137.922
X34.798Y-140.462
X34.798Y-143.002
X34.798Y-145.542
X34.798Y-148.082
X34.798Y-150.622
X34.798Y-153.162
X34.798Y-155.702
X34.798Y-158.242
X34.798Y-160.782
X34.798Y-163.322
X34.798Y-165.862
X34.798Y-168.402
X34.798Y-170.942
X34.798Y-173.482
X35.052Y-106.934
X37.592Y-106.934
X40.132Y-106.934
X40.391Y-177.292
X42.164Y-165.862
X42.672Y-106.934
X42.931Y-177.292
X45.212Y-106.934
X54.61Y-88.9
X54.61Y-91.948
X54.61Y-96.473
X54.61Y-98.926
X54.61Y-101.974
X60.198Y-112.522
X60.198Y-115.062
X60.198Y-117.602
X60.198Y-120.142
X60.198Y-122.682
X60.198Y-125.222
X60.198Y-127.762
X60.198Y-130.302
X60.198Y-132.842
X60.198Y-135.382
X60.198Y-137.922
X60.198Y-140.462
X60.198Y-143.002
X60.198Y-145.542
X60.198Y-148.082
X60.198Y-150.622
X60.198Y-153.162
X60.198Y-155.702
X60.198Y-158.242
X60.198Y-160.782
X60.198Y-163.322
X60.198Y-165.862
X60.198Y-168.402
X60.198Y-170.942
X76.2Y-105.156
X76.2Y-129.286
X99.822Y-158.115
T6
X39.624Y-112.522
X39.624Y-115.062
X39.624Y-117.602
X39.624Y-120.142
X39.624Y-122.682
X39.624Y-125.222
X39.624Y-127.762
X39.624Y-130.302
X39.624Y-132.842
X39.624Y-135.382
X39.624Y-137.922
X39.624Y-140.462
X39.624Y-143.002
X39.624Y-145.542
X39.624Y-148.082
X39.624Y-150.622
X39.624Y-153.162
X39.624Y-155.702
X39.624Y-158.242
X39.624Y-160.782
X39.624Y-163.322
X39.624Y-165.862
X39.624Y-168.402
X39.624Y-170.942
X42.164Y-125.222
X42.164Y-168.402
X44.704Y-125.222
X47.244Y-125.222
X49.784Y-125.222
X51.813Y-154.483
X51.813Y-157.023
X51.813Y-159.563
X51.813Y-162.103
X51.813Y-164.643
X52.324Y-125.222
X54.864Y-112.522
X54.864Y-115.062
X54.864Y-117.602
X54.864Y-120.142
X54.864Y-122.682
X54.864Y-125.222
X54.864Y-127.762
X54.864Y-130.302
X54.864Y-132.842
X54.864Y-135.382
X54.864Y-137.922
X54.864Y-140.462
X54.864Y-143.002
X54.864Y-145.542
X54.864Y-148.082
X54.864Y-150.622
X54.864Y-153.162
X54.864Y-155.702
X54.864Y-158.242
X54.864Y-160.782
X54.864Y-163.322
X54.864Y-165.862
X54.864Y-168.402
X54.864Y-170.942
X61.087Y-86.614
X63.627Y-86.614
X65.33Y-164.12
X65.33Y-168.62
X66.167Y-86.614
X71.83Y-164.12
X71.83Y-168.62
X77.014Y-153.96
X77.014Y-158.46
X77.014Y-164.12
X77.014Y-168.62
X77.014Y-173.772
X77.014Y-178.272
X83.514Y-153.96
X83.514Y-158.46
X83.514Y-164.12
X83.514Y-168.62
X83.514Y-173.772
X83.514Y-178.272
X88.19Y-164.12
X88.19Y-168.62
X94.69Y-164.12
X94.69Y-168.62
T7
X36.342Y-97.536
X36.342Y-100.076
X36.342Y-102.616
X42.164Y-87.122
X44.704Y-87.122
T8
X83.185Y-87.122
X98.425Y-87.122
T9
X127.559Y-122.834
X127.635Y-146.609
X127.635Y-154.534
X127.635Y-126.797
X127.635Y-130.759
X127.635Y-134.722
X127.635Y-138.684
X127.635Y-142.646
X127.635Y-150.571
X127.635Y-158.496
T0
M30
