%TF.GenerationSoftware,KiCad,Pcbnew,(6.0.1)*%
%TF.CreationDate,2022-08-30T11:37:44+02:00*%
%TF.ProjectId,vstcm V3_0FC,76737463-6d20-4563-935f-3046432e6b69,rev?*%
%TF.SameCoordinates,Original*%
%TF.FileFunction,Copper,L1,Top*%
%TF.FilePolarity,Positive*%
%FSLAX46Y46*%
G04 Gerber Fmt 4.6, Leading zero omitted, Abs format (unit mm)*
G04 Created by KiCad (PCBNEW (6.0.1)) date 2022-08-30 11:37:44*
%MOMM*%
%LPD*%
G01*
G04 APERTURE LIST*
G04 Aperture macros list*
%AMRoundRect*
0 Rectangle with rounded corners*
0 $1 Rounding radius*
0 $2 $3 $4 $5 $6 $7 $8 $9 X,Y pos of 4 corners*
0 Add a 4 corners polygon primitive as box body*
4,1,4,$2,$3,$4,$5,$6,$7,$8,$9,$2,$3,0*
0 Add four circle primitives for the rounded corners*
1,1,$1+$1,$2,$3*
1,1,$1+$1,$4,$5*
1,1,$1+$1,$6,$7*
1,1,$1+$1,$8,$9*
0 Add four rect primitives between the rounded corners*
20,1,$1+$1,$2,$3,$4,$5,0*
20,1,$1+$1,$4,$5,$6,$7,0*
20,1,$1+$1,$6,$7,$8,$9,0*
20,1,$1+$1,$8,$9,$2,$3,0*%
G04 Aperture macros list end*
%TA.AperFunction,ComponentPad*%
%ADD10O,3.302000X2.540000*%
%TD*%
%TA.AperFunction,ComponentPad*%
%ADD11R,1.600000X1.600000*%
%TD*%
%TA.AperFunction,ComponentPad*%
%ADD12O,1.600000X1.600000*%
%TD*%
%TA.AperFunction,ComponentPad*%
%ADD13R,1.905000X2.000000*%
%TD*%
%TA.AperFunction,ComponentPad*%
%ADD14O,1.905000X2.000000*%
%TD*%
%TA.AperFunction,ComponentPad*%
%ADD15C,1.600000*%
%TD*%
%TA.AperFunction,ComponentPad*%
%ADD16C,2.000000*%
%TD*%
%TA.AperFunction,ComponentPad*%
%ADD17C,1.440000*%
%TD*%
%TA.AperFunction,ComponentPad*%
%ADD18R,1.700000X1.700000*%
%TD*%
%TA.AperFunction,ComponentPad*%
%ADD19RoundRect,0.250000X0.845000X-0.620000X0.845000X0.620000X-0.845000X0.620000X-0.845000X-0.620000X0*%
%TD*%
%TA.AperFunction,ComponentPad*%
%ADD20O,2.190000X1.740000*%
%TD*%
%TA.AperFunction,ComponentPad*%
%ADD21O,1.700000X1.700000*%
%TD*%
%TA.AperFunction,ComponentPad*%
%ADD22RoundRect,0.250000X-0.620000X-0.845000X0.620000X-0.845000X0.620000X0.845000X-0.620000X0.845000X0*%
%TD*%
%TA.AperFunction,ComponentPad*%
%ADD23O,1.740000X2.190000*%
%TD*%
%TA.AperFunction,ComponentPad*%
%ADD24R,1.300000X1.300000*%
%TD*%
%TA.AperFunction,ComponentPad*%
%ADD25C,1.300000*%
%TD*%
%TA.AperFunction,ComponentPad*%
%ADD26C,2.400000*%
%TD*%
%TA.AperFunction,ComponentPad*%
%ADD27O,2.400000X2.400000*%
%TD*%
%TA.AperFunction,ComponentPad*%
%ADD28O,2.000000X1.700000*%
%TD*%
%TA.AperFunction,ComponentPad*%
%ADD29R,2.000000X1.700000*%
%TD*%
%TA.AperFunction,ViaPad*%
%ADD30C,0.914400*%
%TD*%
%TA.AperFunction,ViaPad*%
%ADD31C,0.800000*%
%TD*%
%TA.AperFunction,Conductor*%
%ADD32C,1.000000*%
%TD*%
%TA.AperFunction,Conductor*%
%ADD33C,0.750000*%
%TD*%
%TA.AperFunction,Conductor*%
%ADD34C,0.500000*%
%TD*%
%TA.AperFunction,Conductor*%
%ADD35C,0.304800*%
%TD*%
%TA.AperFunction,Conductor*%
%ADD36C,0.508000*%
%TD*%
%TA.AperFunction,Conductor*%
%ADD37C,0.381000*%
%TD*%
%TA.AperFunction,Conductor*%
%ADD38C,0.800000*%
%TD*%
G04 APERTURE END LIST*
D10*
%TO.P,BL_GND1,1,1*%
%TO.N,AGND*%
X127635012Y-158496008D03*
%TD*%
D11*
%TO.P,IC4,1,VDD*%
%TO.N,Net-(C15-Pad1)*%
X81280000Y-95250000D03*
D12*
%TO.P,IC4,2*%
%TO.N,N/C*%
X81280000Y-97790000D03*
%TO.P,IC4,3,~{CS}*%
%TO.N,Net-(IC4-Pad3)*%
X81280000Y-100330000D03*
%TO.P,IC4,4,SCK*%
%TO.N,/SCK*%
X81280000Y-102870000D03*
%TO.P,IC4,5,SDI*%
%TO.N,/MOSI*%
X81280000Y-105410000D03*
%TO.P,IC4,6*%
%TO.N,N/C*%
X81280000Y-107950000D03*
%TO.P,IC4,7*%
X81280000Y-110490000D03*
%TO.P,IC4,8,~{LDAC}*%
%TO.N,AGND*%
X88900000Y-110490000D03*
%TO.P,IC4,9,~{SHDN}*%
%TO.N,Net-(C15-Pad1)*%
X88900000Y-107950000D03*
%TO.P,IC4,10,VOUTB*%
%TO.N,Net-(IC4-Pad10)*%
X88900000Y-105410000D03*
%TO.P,IC4,11,VREFB*%
%TO.N,+3V3*%
X88900000Y-102870000D03*
%TO.P,IC4,12,VSS*%
%TO.N,AGND*%
X88900000Y-100330000D03*
%TO.P,IC4,13,VREFA*%
%TO.N,+3V3*%
X88900000Y-97790000D03*
%TO.P,IC4,14,VOUTA*%
%TO.N,Net-(IC4-Pad14)*%
X88900000Y-95250000D03*
%TD*%
D13*
%TO.P,U5,1,VI*%
%TO.N,/Pwr_In*%
X61087000Y-86614000D03*
D14*
%TO.P,U5,2,GND*%
%TO.N,GND*%
X63627000Y-86614000D03*
%TO.P,U5,3,VO*%
%TO.N,Net-(C20-Pad1)*%
X66167000Y-86614000D03*
%TD*%
D15*
%TO.P,R15,1,1*%
%TO.N,Net-(IC1-Pad7)*%
X104775000Y-165735000D03*
D12*
%TO.P,R15,2,2*%
%TO.N,Net-(IC1-Pad6)*%
X112395000Y-165735000D03*
%TD*%
D16*
%TO.P,SW2,1,1*%
%TO.N,GND*%
X83514000Y-173772000D03*
X77014000Y-173772000D03*
%TO.P,SW2,2,2*%
%TO.N,Net-(J1-Pad2)*%
X77014000Y-178272000D03*
X83514000Y-178272000D03*
%TD*%
D15*
%TO.P,R21,1,1*%
%TO.N,Net-(IC1-Pad7)*%
X122555000Y-170180000D03*
D12*
%TO.P,R21,2,2*%
%TO.N,Net-(BL_SIG1-Pad1)*%
X122555000Y-162560000D03*
%TD*%
D17*
%TO.P,RV1,1,1*%
%TO.N,-3V3*%
X121158000Y-100584000D03*
%TO.P,RV1,2,2*%
%TO.N,Net-(IC6-Pad12)*%
X118618000Y-98044000D03*
%TO.P,RV1,3,3*%
%TO.N,+3V3*%
X116078000Y-100584000D03*
%TD*%
D15*
%TO.P,R4,1,1*%
%TO.N,+3V3*%
X101473000Y-136144000D03*
D12*
%TO.P,R4,2,2*%
%TO.N,Net-(IC6-Pad9)*%
X109093000Y-136144000D03*
%TD*%
D11*
%TO.P,C18,1*%
%TO.N,Net-(C15-Pad1)*%
X65913000Y-127508000D03*
D15*
%TO.P,C18,2*%
%TO.N,AGND*%
X67913000Y-127508000D03*
%TD*%
%TO.P,C22,1,1*%
%TO.N,-12V*%
X115189000Y-122047000D03*
%TO.P,C22,2,2*%
%TO.N,AGND*%
X117689000Y-122047000D03*
%TD*%
%TO.P,R17,1,1*%
%TO.N,Net-(IC6-Pad14)*%
X122809000Y-109601000D03*
D12*
%TO.P,R17,2,2*%
%TO.N,Net-(R17-Pad2)*%
X122809000Y-117221000D03*
%TD*%
D15*
%TO.P,C12,1,1*%
%TO.N,AGND*%
X68021200Y-97525200D03*
%TO.P,C12,2,2*%
%TO.N,-12V*%
X68021200Y-100025200D03*
%TD*%
%TO.P,R24,1,1*%
%TO.N,Net-(IC1-Pad5)*%
X85090000Y-147955000D03*
D12*
%TO.P,R24,2,2*%
%TO.N,Net-(IC3-Pad10)*%
X85090000Y-140335000D03*
%TD*%
D16*
%TO.P,SW4,1,1*%
%TO.N,Net-(J1-Pad3)*%
X94690000Y-164120000D03*
X88190000Y-164120000D03*
%TO.P,SW4,2,2*%
%TO.N,GND*%
X94690000Y-168620000D03*
X88190000Y-168620000D03*
%TD*%
D15*
%TO.P,R11,1,1*%
%TO.N,Net-(IC6-Pad8)*%
X118745000Y-118999000D03*
D12*
%TO.P,R11,2,2*%
%TO.N,Net-(IC6-Pad13)*%
X118745000Y-111379000D03*
%TD*%
D16*
%TO.P,SW5,1,1*%
%TO.N,GND*%
X77014000Y-153960000D03*
X83514000Y-153960000D03*
%TO.P,SW5,2,2*%
%TO.N,Net-(J1-Pad6)*%
X83514000Y-158460000D03*
X77014000Y-158460000D03*
%TD*%
D15*
%TO.P,R23,1,1*%
%TO.N,Net-(IC1-Pad10)*%
X93218000Y-137922000D03*
D12*
%TO.P,R23,2,2*%
%TO.N,Net-(IC5-Pad10)*%
X93218000Y-130302000D03*
%TD*%
D15*
%TO.P,C2,1,1*%
%TO.N,+3V3*%
X79883000Y-137628000D03*
%TO.P,C2,2,2*%
%TO.N,AGND*%
X79883000Y-135128000D03*
%TD*%
D11*
%TO.P,IC3,1,VDD*%
%TO.N,Net-(C15-Pad1)*%
X68580000Y-132715000D03*
D12*
%TO.P,IC3,2*%
%TO.N,N/C*%
X68580000Y-135255000D03*
%TO.P,IC3,3,~{CS}*%
%TO.N,Net-(IC3-Pad3)*%
X68580000Y-137795000D03*
%TO.P,IC3,4,SCK*%
%TO.N,/SCK*%
X68580000Y-140335000D03*
%TO.P,IC3,5,SDI*%
%TO.N,/MOSI*%
X68580000Y-142875000D03*
%TO.P,IC3,6*%
%TO.N,N/C*%
X68580000Y-145415000D03*
%TO.P,IC3,7*%
X68580000Y-147955000D03*
%TO.P,IC3,8,~{LDAC}*%
%TO.N,AGND*%
X76200000Y-147955000D03*
%TO.P,IC3,9,~{SHDN}*%
%TO.N,Net-(C15-Pad1)*%
X76200000Y-145415000D03*
%TO.P,IC3,10,VOUTB*%
%TO.N,Net-(IC3-Pad10)*%
X76200000Y-142875000D03*
%TO.P,IC3,11,VREFB*%
%TO.N,+3V3*%
X76200000Y-140335000D03*
%TO.P,IC3,12,VSS*%
%TO.N,AGND*%
X76200000Y-137795000D03*
%TO.P,IC3,13,VREFA*%
%TO.N,+3V3*%
X76200000Y-135255000D03*
%TO.P,IC3,14,VOUTA*%
%TO.N,Net-(IC3-Pad14)*%
X76200000Y-132715000D03*
%TD*%
D11*
%TO.P,C4,1*%
%TO.N,/Pwr_In*%
X41910000Y-93726000D03*
D15*
%TO.P,C4,2*%
%TO.N,GND*%
X43910000Y-93726000D03*
%TD*%
%TO.P,R8,1,1*%
%TO.N,Net-(IC6-Pad6)*%
X99695000Y-124587000D03*
D12*
%TO.P,R8,2,2*%
%TO.N,Net-(IC6-Pad7)*%
X99695000Y-132207000D03*
%TD*%
D18*
%TO.P,TP1,1,Pin_1*%
%TO.N,AGND*%
X42164000Y-165862000D03*
%TD*%
D11*
%TO.P,C20,1*%
%TO.N,Net-(C20-Pad1)*%
X62738000Y-91917200D03*
D15*
%TO.P,C20,2*%
%TO.N,GND*%
X62738000Y-93917200D03*
%TD*%
D19*
%TO.P,J7,1,Pin_1*%
%TO.N,+12V*%
X36342000Y-102616000D03*
D20*
%TO.P,J7,2,Pin_2*%
%TO.N,AGND*%
X36342000Y-100076000D03*
%TO.P,J7,3,Pin_3*%
%TO.N,-12V*%
X36342000Y-97536000D03*
%TD*%
D11*
%TO.P,IC1,1,OUT*%
%TO.N,Net-(IC1-Pad1)*%
X104775000Y-145415000D03*
D12*
%TO.P,IC1,2,-IN*%
%TO.N,Net-(IC1-Pad2)*%
X104775000Y-147955000D03*
%TO.P,IC1,3,+IN*%
%TO.N,Net-(IC1-Pad3)*%
X104775000Y-150495000D03*
%TO.P,IC1,4,V+*%
%TO.N,+12V*%
X104775000Y-153035000D03*
%TO.P,IC1,5,+IN*%
%TO.N,Net-(IC1-Pad5)*%
X104775000Y-155575000D03*
%TO.P,IC1,6,-IN*%
%TO.N,Net-(IC1-Pad6)*%
X104775000Y-158115000D03*
%TO.P,IC1,7,OUT*%
%TO.N,Net-(IC1-Pad7)*%
X104775000Y-160655000D03*
%TO.P,IC1,8,OUT*%
%TO.N,Net-(IC1-Pad8)*%
X112395000Y-160655000D03*
%TO.P,IC1,9,-IN*%
%TO.N,Net-(IC1-Pad9)*%
X112395000Y-158115000D03*
%TO.P,IC1,10,+IN*%
%TO.N,Net-(IC1-Pad10)*%
X112395000Y-155575000D03*
%TO.P,IC1,11,V-*%
%TO.N,-12V*%
X112395000Y-153035000D03*
%TO.P,IC1,12,+IN*%
%TO.N,AGND*%
X112395000Y-150495000D03*
%TO.P,IC1,13,-IN*%
%TO.N,Net-(IC1-Pad13)*%
X112395000Y-147955000D03*
%TO.P,IC1,14,OUT*%
%TO.N,-3V3*%
X112395000Y-145415000D03*
%TD*%
D15*
%TO.P,R20,1,1*%
%TO.N,Net-(IC1-Pad1)*%
X122555000Y-140970000D03*
D12*
%TO.P,R20,2,2*%
%TO.N,Net-(GR_SIG1-Pad1)*%
X122555000Y-148590000D03*
%TD*%
D10*
%TO.P,Y_GND1,1,1*%
%TO.N,AGND*%
X127635012Y-134721609D03*
%TD*%
D15*
%TO.P,C27,1,1*%
%TO.N,Net-(C15-Pad1)*%
X82169000Y-91694000D03*
%TO.P,C27,2,2*%
%TO.N,AGND*%
X84669000Y-91694000D03*
%TD*%
%TO.P,C7,1,1*%
%TO.N,Net-(C15-Pad1)*%
X64770000Y-132735000D03*
%TO.P,C7,2,2*%
%TO.N,AGND*%
X64770000Y-135235000D03*
%TD*%
D18*
%TO.P,J1,1,Pin_1*%
%TO.N,GND*%
X60198000Y-170942000D03*
D21*
%TO.P,J1,2,Pin_2*%
%TO.N,Net-(J1-Pad2)*%
X60198000Y-168402000D03*
%TO.P,J1,3,Pin_3*%
%TO.N,Net-(J1-Pad3)*%
X60198000Y-165862000D03*
%TO.P,J1,4,Pin_4*%
%TO.N,Net-(J1-Pad4)*%
X60198000Y-163322000D03*
%TO.P,J1,5,Pin_5*%
%TO.N,Net-(J1-Pad5)*%
X60198000Y-160782000D03*
%TO.P,J1,6,Pin_6*%
%TO.N,Net-(J1-Pad6)*%
X60198000Y-158242000D03*
%TO.P,J1,7,Pin_7*%
%TO.N,Net-(J1-Pad7)*%
X60198000Y-155702000D03*
%TO.P,J1,8,Pin_8*%
%TO.N,Net-(IC4-Pad3)*%
X60198000Y-153162000D03*
%TO.P,J1,9,Pin_9*%
%TO.N,Net-(J1-Pad9)*%
X60198000Y-150622000D03*
%TO.P,J1,10,Pin_10*%
%TO.N,Net-(J1-Pad10)*%
X60198000Y-148082000D03*
%TO.P,J1,11,Pin_11*%
%TO.N,Net-(J1-Pad11)*%
X60198000Y-145542000D03*
%TO.P,J1,12,Pin_12*%
%TO.N,Net-(J1-Pad12)*%
X60198000Y-143002000D03*
%TO.P,J1,13,Pin_13*%
%TO.N,/MOSI*%
X60198000Y-140462000D03*
%TO.P,J1,14,Pin_14*%
%TO.N,Net-(J1-Pad14)*%
X60198000Y-137922000D03*
%TO.P,J1,15,Pin_15*%
%TO.N,Net-(J1-Pad15)*%
X60198000Y-135382000D03*
%TO.P,J1,16,Pin_16*%
%TO.N,Net-(J1-Pad16)*%
X60198000Y-132842000D03*
%TO.P,J1,17,Pin_17*%
%TO.N,Net-(J1-Pad17)*%
X60198000Y-130302000D03*
%TO.P,J1,18,Pin_18*%
%TO.N,/MOSI1*%
X60198000Y-127762000D03*
%TO.P,J1,19,Pin_19*%
%TO.N,/SCK1*%
X60198000Y-125222000D03*
%TO.P,J1,20,Pin_20*%
%TO.N,Net-(J1-Pad20)*%
X60198000Y-122682000D03*
%TO.P,J1,21,Pin_21*%
%TO.N,Net-(J1-Pad21)*%
X60198000Y-120142000D03*
%TO.P,J1,22,Pin_22*%
%TO.N,Net-(J1-Pad22)*%
X60198000Y-117602000D03*
%TO.P,J1,23,Pin_23*%
%TO.N,Net-(J1-Pad23)*%
X60198000Y-115062000D03*
%TO.P,J1,24,Pin_24*%
%TO.N,Net-(J1-Pad24)*%
X60198000Y-112522000D03*
%TD*%
D18*
%TO.P,J9,1,Pin_1*%
%TO.N,Net-(J9-Pad1)*%
X42931000Y-177292000D03*
D21*
%TO.P,J9,2,Pin_2*%
%TO.N,Net-(J9-Pad2)*%
X40391000Y-177292000D03*
%TD*%
D15*
%TO.P,C24,1,1*%
%TO.N,-12V*%
X115864000Y-153035000D03*
%TO.P,C24,2,2*%
%TO.N,AGND*%
X118364000Y-153035000D03*
%TD*%
D10*
%TO.P,RE_SIG1,1,1*%
%TO.N,Net-(R19-Pad2)*%
X127635012Y-138684009D03*
%TD*%
D15*
%TO.P,R1,1,1*%
%TO.N,Net-(IC5-Pad14)*%
X102489000Y-132969000D03*
D12*
%TO.P,R1,2,2*%
%TO.N,Net-(IC6-Pad10)*%
X110109000Y-132969000D03*
%TD*%
D11*
%TO.P,C5,1*%
%TO.N,Net-(C15-Pad1)*%
X78105000Y-87535000D03*
D15*
%TO.P,C5,2*%
%TO.N,AGND*%
X78105000Y-89535000D03*
%TD*%
%TO.P,C3,1,1*%
%TO.N,/Pwr_In*%
X47625000Y-92623000D03*
%TO.P,C3,2,2*%
%TO.N,GND*%
X47625000Y-95123000D03*
%TD*%
D22*
%TO.P,J6,1,Pin_1*%
%TO.N,/Pwr_In*%
X42164000Y-87122000D03*
D23*
%TO.P,J6,2,Pin_2*%
%TO.N,GND*%
X44704000Y-87122000D03*
%TD*%
D15*
%TO.P,R27,1,1*%
%TO.N,Net-(IC1-Pad13)*%
X119380000Y-149733000D03*
D12*
%TO.P,R27,2,2*%
%TO.N,+3V3*%
X119380000Y-142113000D03*
%TD*%
D15*
%TO.P,R19,1,1*%
%TO.N,Net-(IC1-Pad8)*%
X122555000Y-159385000D03*
D12*
%TO.P,R19,2,2*%
%TO.N,Net-(R19-Pad2)*%
X122555000Y-151765000D03*
%TD*%
D15*
%TO.P,R29,1,1*%
%TO.N,Net-(IC1-Pad9)*%
X112395000Y-170815000D03*
D12*
%TO.P,R29,2,2*%
%TO.N,AGND*%
X104775000Y-170815000D03*
%TD*%
D10*
%TO.P,RE_GND1,1,1*%
%TO.N,AGND*%
X127635012Y-142646408D03*
%TD*%
D15*
%TO.P,R7,1,1*%
%TO.N,Net-(IC6-Pad9)*%
X112903000Y-140716000D03*
D12*
%TO.P,R7,2,2*%
%TO.N,Net-(IC6-Pad8)*%
X112903000Y-133096000D03*
%TD*%
D24*
%TO.P,U3,1,VO*%
%TO.N,Net-(C15-Pad1)*%
X73406000Y-86995000D03*
D25*
%TO.P,U3,2,GND*%
%TO.N,AGND*%
X72009000Y-88519000D03*
%TO.P,U3,3,VI*%
%TO.N,+12V*%
X70612000Y-86995000D03*
%TD*%
D15*
%TO.P,R22,1,1*%
%TO.N,Net-(IC1-Pad3)*%
X97155000Y-150495000D03*
D12*
%TO.P,R22,2,2*%
%TO.N,Net-(IC4-Pad10)*%
X97155000Y-142875000D03*
%TD*%
D18*
%TO.P,TP3,1,Pin_1*%
%TO.N,Net-(C15-Pad1)*%
X76200000Y-105156000D03*
%TD*%
D15*
%TO.P,R31,1,1*%
%TO.N,-3V3*%
X116078000Y-142113000D03*
D12*
%TO.P,R31,2,2*%
%TO.N,Net-(IC1-Pad13)*%
X116078000Y-149733000D03*
%TD*%
D15*
%TO.P,R5,1,1*%
%TO.N,AGND*%
X98552000Y-118237000D03*
D12*
%TO.P,R5,2,2*%
%TO.N,Net-(IC6-Pad5)*%
X98552000Y-110617000D03*
%TD*%
D15*
%TO.P,C1,1,1*%
%TO.N,+12V*%
X70739000Y-91821000D03*
%TO.P,C1,2,2*%
%TO.N,AGND*%
X73239000Y-91821000D03*
%TD*%
%TO.P,R25,1,1*%
%TO.N,Net-(IC6-Pad10)*%
X116205000Y-124841000D03*
D12*
%TO.P,R25,2,2*%
%TO.N,+3V3*%
X116205000Y-132461000D03*
%TD*%
D15*
%TO.P,R14,1,1*%
%TO.N,AGND*%
X80645000Y-147955000D03*
D12*
%TO.P,R14,2,2*%
%TO.N,Net-(IC3-Pad10)*%
X80645000Y-140335000D03*
%TD*%
D15*
%TO.P,R3,1,1*%
%TO.N,AGND*%
X119507000Y-132461000D03*
D12*
%TO.P,R3,2,2*%
%TO.N,Net-(IC6-Pad10)*%
X119507000Y-124841000D03*
%TD*%
D17*
%TO.P,RV4,1,1*%
%TO.N,Net-(IC6-Pad1)*%
X108712000Y-90043000D03*
%TO.P,RV4,2,2*%
%TO.N,Net-(IC6-Pad2)*%
X106172000Y-87503000D03*
%TO.P,RV4,3,3*%
%TO.N,unconnected-(RV4-Pad3)*%
X103632000Y-90043000D03*
%TD*%
D11*
%TO.P,C10,1*%
%TO.N,AGND*%
X62687200Y-98074088D03*
D15*
%TO.P,C10,2*%
%TO.N,-12V*%
X62687200Y-100074088D03*
%TD*%
%TO.P,C17,1,1*%
%TO.N,Net-(C15-Pad1)*%
X77470000Y-95250000D03*
%TO.P,C17,2,2*%
%TO.N,AGND*%
X74970000Y-95250000D03*
%TD*%
D10*
%TO.P,Y_SIG1,1,1*%
%TO.N,Net-(R18-Pad2)*%
X127635012Y-130759208D03*
%TD*%
D18*
%TO.P,J8,1,Pin_1*%
%TO.N,Net-(IC3-Pad14)*%
X76200000Y-129286000D03*
%TD*%
D15*
%TO.P,C23,1,1*%
%TO.N,+12V*%
X100965000Y-153162000D03*
%TO.P,C23,2,2*%
%TO.N,AGND*%
X98465000Y-153162000D03*
%TD*%
%TO.P,R13,1,1*%
%TO.N,Net-(IC6-Pad7)*%
X93345000Y-121793000D03*
D12*
%TO.P,R13,2,2*%
%TO.N,Net-(IC6-Pad2)*%
X93345000Y-114173000D03*
%TD*%
D15*
%TO.P,R16,1,1*%
%TO.N,Net-(IC1-Pad8)*%
X116840000Y-164465000D03*
D12*
%TO.P,R16,2,2*%
%TO.N,Net-(IC1-Pad9)*%
X116840000Y-156845000D03*
%TD*%
D11*
%TO.P,IC6,1,OUT*%
%TO.N,Net-(IC6-Pad1)*%
X103632000Y-114173000D03*
D12*
%TO.P,IC6,2,-IN*%
%TO.N,Net-(IC6-Pad2)*%
X103632000Y-116713000D03*
%TO.P,IC6,3,+IN*%
%TO.N,Net-(IC6-Pad3)*%
X103632000Y-119253000D03*
%TO.P,IC6,4,V+*%
%TO.N,+12V*%
X103632000Y-121793000D03*
%TO.P,IC6,5,+IN*%
%TO.N,Net-(IC6-Pad5)*%
X103632000Y-124333000D03*
%TO.P,IC6,6,-IN*%
%TO.N,Net-(IC6-Pad6)*%
X103632000Y-126873000D03*
%TO.P,IC6,7,OUT*%
%TO.N,Net-(IC6-Pad7)*%
X103632000Y-129413000D03*
%TO.P,IC6,8,OUT*%
%TO.N,Net-(IC6-Pad8)*%
X111252000Y-129413000D03*
%TO.P,IC6,9,-IN*%
%TO.N,Net-(IC6-Pad9)*%
X111252000Y-126873000D03*
%TO.P,IC6,10,+IN*%
%TO.N,Net-(IC6-Pad10)*%
X111252000Y-124333000D03*
%TO.P,IC6,11,V-*%
%TO.N,-12V*%
X111252000Y-121793000D03*
%TO.P,IC6,12,+IN*%
%TO.N,Net-(IC6-Pad12)*%
X111252000Y-119253000D03*
%TO.P,IC6,13,-IN*%
%TO.N,Net-(IC6-Pad13)*%
X111252000Y-116713000D03*
%TO.P,IC6,14,OUT*%
%TO.N,Net-(IC6-Pad14)*%
X111252000Y-114173000D03*
%TD*%
D16*
%TO.P,SW1,1,1*%
%TO.N,Net-(J1-Pad5)*%
X71830000Y-164120000D03*
X65330000Y-164120000D03*
%TO.P,SW1,2,2*%
%TO.N,GND*%
X65330000Y-168620000D03*
X71830000Y-168620000D03*
%TD*%
D10*
%TO.P,BL_SIG1,1,1*%
%TO.N,Net-(BL_SIG1-Pad1)*%
X127635000Y-154533609D03*
%TD*%
D15*
%TO.P,R26,1,1*%
%TO.N,Net-(IC6-Pad5)*%
X96393000Y-124587000D03*
D12*
%TO.P,R26,2,2*%
%TO.N,+3V3*%
X96393000Y-132207000D03*
%TD*%
D10*
%TO.P,GR_SIG1,1,1*%
%TO.N,Net-(GR_SIG1-Pad1)*%
X127635000Y-146608809D03*
%TD*%
D11*
%TO.P,IC5,1,VDD*%
%TO.N,Net-(C15-Pad1)*%
X81280000Y-115570000D03*
D12*
%TO.P,IC5,2*%
%TO.N,N/C*%
X81280000Y-118110000D03*
%TO.P,IC5,3,~{CS}*%
%TO.N,Net-(IC4-Pad3)*%
X81280000Y-120650000D03*
%TO.P,IC5,4,SCK*%
%TO.N,/SCK1*%
X81280000Y-123190000D03*
%TO.P,IC5,5,SDI*%
%TO.N,/MOSI1*%
X81280000Y-125730000D03*
%TO.P,IC5,6*%
%TO.N,N/C*%
X81280000Y-128270000D03*
%TO.P,IC5,7*%
X81280000Y-130810000D03*
%TO.P,IC5,8,~{LDAC}*%
%TO.N,AGND*%
X88900000Y-130810000D03*
%TO.P,IC5,9,~{SHDN}*%
%TO.N,Net-(C15-Pad1)*%
X88900000Y-128270000D03*
%TO.P,IC5,10,VOUTB*%
%TO.N,Net-(IC5-Pad10)*%
X88900000Y-125730000D03*
%TO.P,IC5,11,VREFB*%
%TO.N,+3V3*%
X88900000Y-123190000D03*
%TO.P,IC5,12,VSS*%
%TO.N,AGND*%
X88900000Y-120650000D03*
%TO.P,IC5,13,VREFA*%
%TO.N,+3V3*%
X88900000Y-118110000D03*
%TO.P,IC5,14,VOUTA*%
%TO.N,Net-(IC5-Pad14)*%
X88900000Y-115570000D03*
%TD*%
D15*
%TO.P,R18,1,1*%
%TO.N,Net-(IC6-Pad1)*%
X103505000Y-109855000D03*
D12*
%TO.P,R18,2,2*%
%TO.N,Net-(R18-Pad2)*%
X111125000Y-109855000D03*
%TD*%
D18*
%TO.P,J3,1,Pin_1*%
%TO.N,Net-(J3-Pad1)*%
X34798000Y-112522000D03*
D21*
%TO.P,J3,2,Pin_2*%
%TO.N,Net-(J3-Pad2)*%
X34798000Y-115062000D03*
%TO.P,J3,3,Pin_3*%
%TO.N,Net-(J3-Pad3)*%
X34798000Y-117602000D03*
%TO.P,J3,4,Pin_4*%
%TO.N,Net-(J3-Pad4)*%
X34798000Y-120142000D03*
%TO.P,J3,5,Pin_5*%
%TO.N,Net-(J3-Pad5)*%
X34798000Y-122682000D03*
%TO.P,J3,6,Pin_6*%
%TO.N,Net-(J3-Pad6)*%
X34798000Y-125222000D03*
%TO.P,J3,7,Pin_7*%
%TO.N,Net-(J3-Pad7)*%
X34798000Y-127762000D03*
%TO.P,J3,8,Pin_8*%
%TO.N,Net-(J3-Pad8)*%
X34798000Y-130302000D03*
%TO.P,J3,9,Pin_9*%
%TO.N,Net-(J3-Pad9)*%
X34798000Y-132842000D03*
%TO.P,J3,10,Pin_10*%
%TO.N,AGND*%
X34798000Y-135382000D03*
%TO.P,J3,11,Pin_11*%
%TO.N,/SCK*%
X34798000Y-137922000D03*
%TO.P,J3,12,Pin_12*%
%TO.N,Net-(J3-Pad12)*%
X34798000Y-140462000D03*
%TO.P,J3,13,Pin_13*%
%TO.N,Net-(J3-Pad13)*%
X34798000Y-143002000D03*
%TO.P,J3,14,Pin_14*%
%TO.N,/CS1*%
X34798000Y-145542000D03*
%TO.P,J3,15,Pin_15*%
%TO.N,Net-(J3-Pad15)*%
X34798000Y-148082000D03*
%TO.P,J3,16,Pin_16*%
%TO.N,Net-(J3-Pad16)*%
X34798000Y-150622000D03*
%TO.P,J3,17,Pin_17*%
%TO.N,Net-(J3-Pad17)*%
X34798000Y-153162000D03*
%TO.P,J3,18,Pin_18*%
%TO.N,Net-(J3-Pad18)*%
X34798000Y-155702000D03*
%TO.P,J3,19,Pin_19*%
%TO.N,Net-(J3-Pad19)*%
X34798000Y-158242000D03*
%TO.P,J3,20,Pin_20*%
%TO.N,Net-(IC3-Pad3)*%
X34798000Y-160782000D03*
%TO.P,J3,21,Pin_21*%
%TO.N,Net-(J3-Pad21)*%
X34798000Y-163322000D03*
%TO.P,J3,22,Pin_22*%
%TO.N,Net-(J3-Pad22)*%
X34798000Y-165862000D03*
%TO.P,J3,23,Pin_23*%
%TO.N,Net-(J3-Pad23)*%
X34798000Y-168402000D03*
%TO.P,J3,24,Pin_24*%
%TO.N,Net-(C20-Pad1)*%
X34798000Y-170942000D03*
%TO.P,J3,25,Pin_25*%
%TO.N,Net-(J3-Pad25)*%
X34798000Y-173482000D03*
%TD*%
D17*
%TO.P,RV3,1,1*%
%TO.N,Net-(IC6-Pad14)*%
X121158000Y-90043000D03*
%TO.P,RV3,2,2*%
%TO.N,Net-(IC6-Pad13)*%
X118618000Y-87503000D03*
%TO.P,RV3,3,3*%
%TO.N,unconnected-(RV3-Pad3)*%
X116078000Y-90043000D03*
%TD*%
D15*
%TO.P,R28,1,1*%
%TO.N,Net-(IC1-Pad2)*%
X93345000Y-150495000D03*
D12*
%TO.P,R28,2,2*%
%TO.N,AGND*%
X93345000Y-142875000D03*
%TD*%
D17*
%TO.P,RV2,1,1*%
%TO.N,-3V3*%
X108712000Y-100584000D03*
%TO.P,RV2,2,2*%
%TO.N,Net-(IC6-Pad3)*%
X106172000Y-98044000D03*
%TO.P,RV2,3,3*%
%TO.N,+3V3*%
X103632000Y-100584000D03*
%TD*%
D15*
%TO.P,R9,1,1*%
%TO.N,AGND*%
X98425000Y-97790000D03*
D12*
%TO.P,R9,2,2*%
%TO.N,Net-(IC4-Pad10)*%
X98425000Y-105410000D03*
%TD*%
D26*
%TO.P,L1,1,1*%
%TO.N,Net-(C15-Pad1)*%
X83185000Y-87122000D03*
D27*
%TO.P,L1,2,2*%
%TO.N,+3V3*%
X98425000Y-87122000D03*
%TD*%
D11*
%TO.P,U1,1,GND*%
%TO.N,GND*%
X54864000Y-170942000D03*
D15*
%TO.P,U1,2,0_RX1_CRX2_CS1*%
%TO.N,Net-(J1-Pad2)*%
X54864000Y-168402000D03*
%TO.P,U1,3,1_TX1_CTX2_MISO1*%
%TO.N,Net-(J1-Pad3)*%
X54864000Y-165862000D03*
%TO.P,U1,4,2_OUT2*%
%TO.N,Net-(J1-Pad4)*%
X54864000Y-163322000D03*
%TO.P,U1,5,3_LRCLK2*%
%TO.N,Net-(J1-Pad5)*%
X54864000Y-160782000D03*
%TO.P,U1,6,4_BCLK2*%
%TO.N,Net-(J1-Pad6)*%
X54864000Y-158242000D03*
%TO.P,U1,7,5_IN2*%
%TO.N,Net-(J1-Pad7)*%
X54864000Y-155702000D03*
%TO.P,U1,8,6_OUT1D*%
%TO.N,Net-(IC4-Pad3)*%
X54864000Y-153162000D03*
%TO.P,U1,9,7_RX2_OUT1A*%
%TO.N,Net-(J1-Pad9)*%
X54864000Y-150622000D03*
%TO.P,U1,10,8_TX2_IN1*%
%TO.N,Net-(J1-Pad10)*%
X54864000Y-148082000D03*
%TO.P,U1,11,9_OUT1C*%
%TO.N,Net-(J1-Pad11)*%
X54864000Y-145542000D03*
%TO.P,U1,12,10_CS_MQSR*%
%TO.N,Net-(J1-Pad12)*%
X54864000Y-143002000D03*
%TO.P,U1,13,11_MOSI_CTX1*%
%TO.N,/MOSI*%
X54864000Y-140462000D03*
%TO.P,U1,14,12_MISO_MQSL*%
%TO.N,Net-(J1-Pad14)*%
X54864000Y-137922000D03*
%TO.P,U1,15,3V3*%
%TO.N,Net-(J1-Pad15)*%
X54864000Y-135382000D03*
%TO.P,U1,16,24_A10_TX6_SCL2*%
%TO.N,Net-(J1-Pad16)*%
X54864000Y-132842000D03*
%TO.P,U1,17,25_A11_RX6_SDA2*%
%TO.N,Net-(J1-Pad17)*%
X54864000Y-130302000D03*
%TO.P,U1,18,26_A12_MOSI1*%
%TO.N,/MOSI1*%
X54864000Y-127762000D03*
%TO.P,U1,19,27_A13_SCK1*%
%TO.N,/SCK1*%
X54864000Y-125222000D03*
%TO.P,U1,20,28_RX7*%
%TO.N,Net-(J1-Pad20)*%
X54864000Y-122682000D03*
%TO.P,U1,21,29_TX7*%
%TO.N,Net-(J1-Pad21)*%
X54864000Y-120142000D03*
%TO.P,U1,22,30_CRX3*%
%TO.N,Net-(J1-Pad22)*%
X54864000Y-117602000D03*
%TO.P,U1,23,31_CTX3*%
%TO.N,Net-(J1-Pad23)*%
X54864000Y-115062000D03*
%TO.P,U1,24,32_OUT1B*%
%TO.N,Net-(J1-Pad24)*%
X54864000Y-112522000D03*
%TO.P,U1,25,33_MCLK2*%
%TO.N,Net-(J3-Pad1)*%
X39624000Y-112522000D03*
%TO.P,U1,26,34_RX8*%
%TO.N,Net-(J3-Pad2)*%
X39624000Y-115062000D03*
%TO.P,U1,27,35_TX8*%
%TO.N,Net-(J3-Pad3)*%
X39624000Y-117602000D03*
%TO.P,U1,28,36_CS*%
%TO.N,Net-(J3-Pad4)*%
X39624000Y-120142000D03*
%TO.P,U1,29,37_CS*%
%TO.N,Net-(J3-Pad5)*%
X39624000Y-122682000D03*
%TO.P,U1,30,38_CS1_IN1*%
%TO.N,Net-(J3-Pad6)*%
X39624000Y-125222000D03*
%TO.P,U1,31,39_MISO1_OUT1A*%
%TO.N,Net-(J3-Pad7)*%
X39624000Y-127762000D03*
%TO.P,U1,32,40_A16*%
%TO.N,Net-(J3-Pad8)*%
X39624000Y-130302000D03*
%TO.P,U1,33,41_A17*%
%TO.N,Net-(J3-Pad9)*%
X39624000Y-132842000D03*
%TO.P,U1,34,GND*%
%TO.N,AGND*%
X39624000Y-135382000D03*
%TO.P,U1,35,13_SCK_LED*%
%TO.N,/SCK*%
X39624000Y-137922000D03*
%TO.P,U1,36,14_A0_TX3_SPDIF_OUT*%
%TO.N,Net-(J3-Pad12)*%
X39624000Y-140462000D03*
%TO.P,U1,37,15_A1_RX3_SPDIF_IN*%
%TO.N,Net-(J3-Pad13)*%
X39624000Y-143002000D03*
%TO.P,U1,38,16_A2_RX4_SCL1*%
%TO.N,/CS1*%
X39624000Y-145542000D03*
%TO.P,U1,39,17_A3_TX4_SDA1*%
%TO.N,Net-(J3-Pad15)*%
X39624000Y-148082000D03*
%TO.P,U1,40,18_A4_SDA*%
%TO.N,Net-(J3-Pad16)*%
X39624000Y-150622000D03*
%TO.P,U1,41,19_A5_SCL*%
%TO.N,Net-(J3-Pad17)*%
X39624000Y-153162000D03*
%TO.P,U1,42,20_A6_TX5_LRCLK1*%
%TO.N,Net-(J3-Pad18)*%
X39624000Y-155702000D03*
%TO.P,U1,43,21_A7_RX5_BCLK1*%
%TO.N,Net-(J3-Pad19)*%
X39624000Y-158242000D03*
%TO.P,U1,44,22_A8_CTX1*%
%TO.N,Net-(IC3-Pad3)*%
X39624000Y-160782000D03*
%TO.P,U1,45,23_A9_CRX1_MCLK1*%
%TO.N,Net-(J3-Pad21)*%
X39624000Y-163322000D03*
%TO.P,U1,46,3V3*%
%TO.N,Net-(J3-Pad22)*%
X39624000Y-165862000D03*
%TO.P,U1,47,GND*%
%TO.N,Net-(J3-Pad23)*%
X39624000Y-168402000D03*
%TO.P,U1,48,VIN*%
%TO.N,Net-(C20-Pad1)*%
X39624000Y-170942000D03*
%TO.P,U1,49,VUSB*%
%TO.N,Net-(J3-Pad25)*%
X42164000Y-168402000D03*
%TO.P,U1,50,VBAT*%
%TO.N,Net-(J2-Pad1)*%
X52324000Y-125222000D03*
%TO.P,U1,51,3V3*%
%TO.N,Net-(J2-Pad2)*%
X49784000Y-125222000D03*
%TO.P,U1,52,GND*%
%TO.N,GND*%
X47244000Y-125222000D03*
%TO.P,U1,53,PROGRAM*%
%TO.N,Net-(J2-Pad4)*%
X44704000Y-125222000D03*
%TO.P,U1,54,ON_OFF*%
%TO.N,Net-(J2-Pad5)*%
X42164000Y-125222000D03*
D11*
%TO.P,U1,55,5V*%
%TO.N,unconnected-(U1-Pad55)*%
X51813200Y-164642800D03*
D15*
%TO.P,U1,56,D-*%
%TO.N,unconnected-(U1-Pad56)*%
X51813200Y-162102800D03*
%TO.P,U1,57,D+*%
%TO.N,unconnected-(U1-Pad57)*%
X51813200Y-159562800D03*
%TO.P,U1,58,GND*%
%TO.N,unconnected-(U1-Pad58)*%
X51813200Y-157022800D03*
%TO.P,U1,59,GND*%
%TO.N,unconnected-(U1-Pad59)*%
X51813200Y-154482800D03*
D24*
%TO.P,U1,60,R+*%
%TO.N,unconnected-(U1-Pad60)*%
X42062400Y-157972000D03*
D25*
%TO.P,U1,61,LED*%
%TO.N,unconnected-(U1-Pad61)*%
X44062400Y-157972000D03*
%TO.P,U1,62,T-*%
%TO.N,unconnected-(U1-Pad62)*%
X46062400Y-157972000D03*
%TO.P,U1,63,T+*%
%TO.N,unconnected-(U1-Pad63)*%
X46062400Y-155972000D03*
%TO.P,U1,64,GND*%
%TO.N,unconnected-(U1-Pad64)*%
X44062400Y-155972000D03*
%TO.P,U1,65,R-*%
%TO.N,unconnected-(U1-Pad65)*%
X42062400Y-155972000D03*
%TO.P,U1,66,D-*%
%TO.N,Net-(J9-Pad1)*%
X45974000Y-170212000D03*
%TO.P,U1,67,D+*%
%TO.N,Net-(J9-Pad2)*%
X48514000Y-170212000D03*
%TD*%
D11*
%TO.P,C15,1*%
%TO.N,Net-(C15-Pad1)*%
X76200000Y-98965000D03*
D15*
%TO.P,C15,2*%
%TO.N,AGND*%
X76200000Y-100965000D03*
%TD*%
D16*
%TO.P,SW3,1,1*%
%TO.N,Net-(J1-Pad4)*%
X77014000Y-164120000D03*
X83514000Y-164120000D03*
%TO.P,SW3,2,2*%
%TO.N,GND*%
X77014000Y-168620000D03*
X83514000Y-168620000D03*
%TD*%
D15*
%TO.P,C21,1,1*%
%TO.N,+12V*%
X99782000Y-121793000D03*
%TO.P,C21,2,2*%
%TO.N,AGND*%
X97282000Y-121793000D03*
%TD*%
D18*
%TO.P,TP2,1,Pin_1*%
%TO.N,AGND*%
X99822000Y-158115000D03*
%TD*%
D15*
%TO.P,C19,1,1*%
%TO.N,/Pwr_In*%
X67310000Y-91440000D03*
%TO.P,C19,2,2*%
%TO.N,GND*%
X67310000Y-93940000D03*
%TD*%
%TO.P,R30,1,1*%
%TO.N,Net-(IC1-Pad6)*%
X116840000Y-167640000D03*
D12*
%TO.P,R30,2,2*%
%TO.N,AGND*%
X116840000Y-175260000D03*
%TD*%
D15*
%TO.P,C26,1,1*%
%TO.N,+3V3*%
X119380000Y-137287000D03*
%TO.P,C26,2,2*%
%TO.N,AGND*%
X116880000Y-137287000D03*
%TD*%
%TO.P,R6,1,1*%
%TO.N,+3V3*%
X97155000Y-139446000D03*
D12*
%TO.P,R6,2,2*%
%TO.N,Net-(IC6-Pad6)*%
X104775000Y-139446000D03*
%TD*%
D15*
%TO.P,C13,1,1*%
%TO.N,+12V*%
X71755000Y-105379200D03*
%TO.P,C13,2,2*%
%TO.N,AGND*%
X71755000Y-107879200D03*
%TD*%
%TO.P,C6,1,1*%
%TO.N,+3V3*%
X98425000Y-91821000D03*
%TO.P,C6,2,2*%
%TO.N,AGND*%
X98425000Y-94321000D03*
%TD*%
%TO.P,C8,1,1*%
%TO.N,Net-(C15-Pad1)*%
X77470000Y-115570000D03*
%TO.P,C8,2,2*%
%TO.N,AGND*%
X74970000Y-115570000D03*
%TD*%
%TO.P,R12,1,1*%
%TO.N,Net-(IC1-Pad1)*%
X100965000Y-142875000D03*
D12*
%TO.P,R12,2,2*%
%TO.N,Net-(IC1-Pad2)*%
X100965000Y-150495000D03*
%TD*%
D28*
%TO.P,IC2,1,+VIN*%
%TO.N,/Pwr_In*%
X54610000Y-88900000D03*
%TO.P,IC2,2,-VIN*%
%TO.N,GND*%
X54610000Y-91948000D03*
%TO.P,IC2,4,-VOUT*%
%TO.N,-12V*%
X54610000Y-96473000D03*
%TO.P,IC2,5,COM*%
%TO.N,AGND*%
X54610000Y-98926000D03*
D29*
%TO.P,IC2,6,+VOUT*%
%TO.N,+12V*%
X54610000Y-101974000D03*
%TD*%
D15*
%TO.P,C25,1,1*%
%TO.N,+3V3*%
X92964000Y-97790000D03*
%TO.P,C25,2,2*%
%TO.N,AGND*%
X92964000Y-95290000D03*
%TD*%
%TO.P,C11,1,1*%
%TO.N,+12V*%
X68021200Y-105379200D03*
%TO.P,C11,2,2*%
%TO.N,AGND*%
X68021200Y-107879200D03*
%TD*%
%TO.P,C14,1,1*%
%TO.N,AGND*%
X71755000Y-97525200D03*
%TO.P,C14,2,2*%
%TO.N,-12V*%
X71755000Y-100025200D03*
%TD*%
%TO.P,R10,1,1*%
%TO.N,AGND*%
X82550000Y-135255000D03*
D12*
%TO.P,R10,2,2*%
%TO.N,Net-(IC5-Pad10)*%
X90170000Y-135255000D03*
%TD*%
D11*
%TO.P,C16,1*%
%TO.N,Net-(C15-Pad1)*%
X76200000Y-119380000D03*
D15*
%TO.P,C16,2*%
%TO.N,AGND*%
X76200000Y-121380000D03*
%TD*%
%TO.P,R2,1,1*%
%TO.N,Net-(IC4-Pad14)*%
X92837000Y-102997000D03*
D12*
%TO.P,R2,2,2*%
%TO.N,Net-(IC6-Pad5)*%
X92837000Y-110617000D03*
%TD*%
D18*
%TO.P,J2,1,Pin_1*%
%TO.N,Net-(J2-Pad1)*%
X45212000Y-106934000D03*
D21*
%TO.P,J2,2,Pin_2*%
%TO.N,Net-(J2-Pad2)*%
X42672000Y-106934000D03*
%TO.P,J2,3,Pin_3*%
%TO.N,GND*%
X40132000Y-106934000D03*
%TO.P,J2,4,Pin_4*%
%TO.N,Net-(J2-Pad4)*%
X37592000Y-106934000D03*
%TO.P,J2,5,Pin_5*%
%TO.N,Net-(J2-Pad5)*%
X35052000Y-106934000D03*
%TD*%
D10*
%TO.P,X_SIG1,1,1*%
%TO.N,Net-(R17-Pad2)*%
X127558812Y-122834408D03*
%TD*%
%TO.P,GR_GND1,1,1*%
%TO.N,AGND*%
X127635012Y-150571208D03*
%TD*%
D11*
%TO.P,C9,1*%
%TO.N,+12V*%
X62941200Y-105379200D03*
D15*
%TO.P,C9,2*%
%TO.N,AGND*%
X62941200Y-107379200D03*
%TD*%
D10*
%TO.P,X_GND1,1,1*%
%TO.N,AGND*%
X127635012Y-126796809D03*
%TD*%
D30*
%TO.N,GND*%
X48895000Y-135763000D03*
X48895000Y-138938000D03*
%TO.N,/SCK*%
X70358000Y-126619000D03*
X70104012Y-123393209D03*
%TO.N,/MOSI*%
X72237612Y-126669809D03*
X72009012Y-123469409D03*
%TO.N,Net-(IC1-Pad1)*%
X109111900Y-145415000D03*
%TO.N,+3V3*%
X109111900Y-142621000D03*
X108077000Y-96139000D03*
X105156000Y-142621000D03*
X101092000Y-100711000D03*
X93472000Y-140081000D03*
X115062000Y-96139000D03*
%TO.N,-3V3*%
X115443000Y-102616000D03*
X125984000Y-100711000D03*
D31*
%TO.N,Net-(C15-Pad1)*%
X85090000Y-133096000D03*
X87757000Y-133096000D03*
X88392000Y-113030000D03*
X85217000Y-113030000D03*
D30*
X73609212Y-132715009D03*
%TO.N,Net-(IC6-Pad3)*%
X101600000Y-115570000D03*
%TD*%
D32*
%TO.N,AGND*%
X34798000Y-135382000D02*
X39624000Y-135382000D01*
D33*
%TO.N,+12V*%
X70561212Y-87045788D02*
X72517000Y-85090000D01*
X105410000Y-153035000D02*
X104775000Y-153035000D01*
X55626000Y-101974000D02*
X57785000Y-101974000D01*
X73634612Y-96545409D02*
X70739000Y-93649797D01*
X105918000Y-120269000D02*
X104394000Y-121793000D01*
X104394000Y-121793000D02*
X103632000Y-121793000D01*
X103632000Y-121793000D02*
X106451412Y-124612412D01*
X70739000Y-93649797D02*
X70739000Y-91821000D01*
X99782000Y-121793000D02*
X103632000Y-121793000D01*
X107696000Y-85090000D02*
X110617000Y-88011000D01*
X110617000Y-88011000D02*
X110617000Y-104267000D01*
X106451412Y-124612412D02*
X106451412Y-151993588D01*
X57785000Y-101974000D02*
X61190200Y-105379200D01*
X36342000Y-102616000D02*
X54984000Y-102616000D01*
X62941200Y-105379200D02*
X68021200Y-105379200D01*
X106451412Y-151993588D02*
X105410000Y-153035000D01*
X70561212Y-91643212D02*
X70561212Y-87045788D01*
X110617000Y-104267000D02*
X105918000Y-108966000D01*
X70739000Y-91821000D02*
X70561212Y-91643212D01*
X68021200Y-105379200D02*
X71755000Y-105379200D01*
D34*
X100965000Y-153035000D02*
X104775000Y-153035000D01*
D33*
X105918000Y-108966000D02*
X105918000Y-120269000D01*
X61190200Y-105379200D02*
X62941200Y-105379200D01*
X73634612Y-103499588D02*
X73634612Y-96545409D01*
X71755000Y-105379200D02*
X73634612Y-103499588D01*
X72517000Y-85090000D02*
X107696000Y-85090000D01*
X54984000Y-102616000D02*
X55626000Y-101974000D01*
%TO.N,-12V*%
X67972312Y-100074088D02*
X68021200Y-100025200D01*
X60831088Y-100074088D02*
X62687200Y-100074088D01*
X51562000Y-97536000D02*
X52625000Y-96473000D01*
X111252000Y-121793000D02*
X107886500Y-121793000D01*
X69900800Y-100025200D02*
X69900800Y-95021397D01*
X69900800Y-95021397D02*
X69240412Y-94361009D01*
X52625000Y-96473000D02*
X57230000Y-96473000D01*
X114935000Y-121793000D02*
X115189000Y-122047000D01*
X68021200Y-100025200D02*
X69900800Y-100025200D01*
X107664489Y-110267511D02*
X107664489Y-148304489D01*
X57230000Y-96473000D02*
X60831088Y-100074088D01*
X70993021Y-83820000D02*
X108839000Y-83820000D01*
X112395000Y-105537000D02*
X107664489Y-110267511D01*
X107664489Y-148304489D02*
X112395000Y-153035000D01*
X69875412Y-94996009D02*
X69088012Y-94208609D01*
X112395000Y-87376000D02*
X112395000Y-105537000D01*
X111252000Y-121793000D02*
X114935000Y-121793000D01*
X108839000Y-83820000D02*
X112395000Y-87376000D01*
X69900800Y-100025200D02*
X71755000Y-100025200D01*
X69088012Y-85725009D02*
X70993021Y-83820000D01*
X36342000Y-97536000D02*
X51562000Y-97536000D01*
X62687200Y-100074088D02*
X67972312Y-100074088D01*
D34*
X112395000Y-153035000D02*
X115610000Y-153035000D01*
D33*
X69088012Y-94208609D02*
X69088012Y-85725009D01*
%TO.N,GND*%
X65330000Y-168620000D02*
X71830000Y-168620000D01*
X59246200Y-93917200D02*
X62738000Y-93917200D01*
X34036000Y-96266000D02*
X34544000Y-95758000D01*
X83514000Y-168620000D02*
X94690000Y-168620000D01*
X96774000Y-161671000D02*
X97409000Y-162306000D01*
X47625000Y-95504000D02*
X47879000Y-95758000D01*
X84150212Y-180619409D02*
X85471012Y-179298609D01*
X71830000Y-168620000D02*
X77014000Y-168620000D01*
X97409000Y-167767000D02*
X96556000Y-168620000D01*
X62760800Y-93940000D02*
X62738000Y-93917200D01*
X77014000Y-173772000D02*
X77014000Y-168620000D01*
X47244000Y-114046000D02*
X47244000Y-125222000D01*
X54864000Y-170942000D02*
X53314000Y-170942000D01*
X47244000Y-134112000D02*
X48895000Y-135763000D01*
X44704000Y-87122000D02*
X44704000Y-92932000D01*
X57277000Y-91948000D02*
X59246200Y-93917200D01*
X97409000Y-162306000D02*
X97409000Y-167767000D01*
X34036000Y-103886000D02*
X34036000Y-96266000D01*
X40132000Y-106934000D02*
X38100000Y-104902000D01*
X96556000Y-168620000D02*
X94690000Y-168620000D01*
X48260000Y-95758000D02*
X47625000Y-95123000D01*
X53975000Y-91948000D02*
X57277000Y-91948000D01*
X38100000Y-104902000D02*
X35052000Y-104902000D01*
X40132000Y-106934000D02*
X47244000Y-114046000D01*
X50165000Y-95758000D02*
X53975000Y-91948000D01*
X83514000Y-173772000D02*
X83514000Y-168620000D01*
X83514000Y-153960000D02*
X86015000Y-153960000D01*
X67970409Y-180619409D02*
X84150212Y-180619409D01*
X44323000Y-95758000D02*
X47879000Y-95758000D01*
X93726000Y-161671000D02*
X96774000Y-161671000D01*
X47879000Y-95758000D02*
X50165000Y-95758000D01*
X48895000Y-166523000D02*
X48895000Y-138938000D01*
X43910000Y-93726000D02*
X43910000Y-95345000D01*
X60198000Y-170942000D02*
X60198000Y-172847000D01*
X44704000Y-92932000D02*
X43910000Y-93726000D01*
X43910000Y-95345000D02*
X44323000Y-95758000D01*
X35052000Y-104902000D02*
X34036000Y-103886000D01*
X67310000Y-93940000D02*
X62760800Y-93940000D01*
X83514000Y-173772000D02*
X77014000Y-173772000D01*
X77014000Y-153960000D02*
X83514000Y-153960000D01*
X86015000Y-153960000D02*
X93726000Y-161671000D01*
X60198000Y-172847000D02*
X67970409Y-180619409D01*
X53314000Y-170942000D02*
X48895000Y-166523000D01*
X85471012Y-175729012D02*
X83514000Y-173772000D01*
X47244000Y-125222000D02*
X47244000Y-134112000D01*
D32*
X60198000Y-170942000D02*
X54864000Y-170942000D01*
D33*
X85471012Y-179298609D02*
X85471012Y-175729012D01*
X47625000Y-95123000D02*
X47625000Y-95504000D01*
X34544000Y-95758000D02*
X44323000Y-95758000D01*
D35*
%TO.N,Net-(IC1-Pad2)*%
X99568000Y-149098000D02*
X100965000Y-150495000D01*
X93345000Y-150495000D02*
X94742000Y-149098000D01*
X100965000Y-150495000D02*
X102235000Y-150495000D01*
X102235000Y-150495000D02*
X104775000Y-147955000D01*
X94742000Y-149098000D02*
X99568000Y-149098000D01*
D34*
%TO.N,Net-(IC1-Pad3)*%
X103428800Y-151841200D02*
X104775000Y-150495000D01*
X97155000Y-150495000D02*
X98501200Y-151841200D01*
X98501200Y-151841200D02*
X103428800Y-151841200D01*
%TO.N,Net-(IC1-Pad8)*%
X115316000Y-155321000D02*
X118491000Y-155321000D01*
D35*
X113792000Y-156845000D02*
X114173000Y-156464000D01*
D36*
X116205012Y-164464999D02*
X116840012Y-164464999D01*
D35*
X110998000Y-156972000D02*
X111125000Y-156845000D01*
D34*
X110871000Y-157099000D02*
X110998000Y-156972000D01*
X114173000Y-156464000D02*
X115316000Y-155321000D01*
X110871000Y-159131000D02*
X110871000Y-157099000D01*
D36*
X112395012Y-160654999D02*
X116205012Y-164464999D01*
D34*
X118491000Y-155321000D02*
X122555000Y-159385000D01*
D35*
X111125000Y-156845000D02*
X113792000Y-156845000D01*
D34*
X112395000Y-160655000D02*
X110871000Y-159131000D01*
D36*
%TO.N,Net-(IC1-Pad6)*%
X114935012Y-165734999D02*
X116840012Y-167639999D01*
X104775012Y-158114999D02*
X105791012Y-158114999D01*
X112395012Y-164718999D02*
X112395012Y-165734999D01*
X112395012Y-165734999D02*
X114935012Y-165734999D01*
X105791012Y-158114999D02*
X112395012Y-164718999D01*
D35*
%TO.N,Net-(IC1-Pad10)*%
X93218000Y-137922000D02*
X93218000Y-138430000D01*
X103251000Y-154813000D02*
X103759000Y-154305000D01*
X94996000Y-154813000D02*
X103251000Y-154813000D01*
X91821000Y-151638000D02*
X94996000Y-154813000D01*
X103759000Y-154305000D02*
X111125000Y-154305000D01*
X111125000Y-154305000D02*
X112395000Y-155575000D01*
X95123000Y-146431000D02*
X91821000Y-149733000D01*
X93218000Y-138430000D02*
X95123000Y-140335000D01*
X91821000Y-149733000D02*
X91821000Y-151638000D01*
X95123000Y-140335000D02*
X95123000Y-146431000D01*
%TO.N,/SCK*%
X68580012Y-140335009D02*
X65913012Y-140335009D01*
X52197000Y-139192009D02*
X50927000Y-137922009D01*
X81280012Y-102870009D02*
X70154812Y-113995209D01*
X50927000Y-137922009D02*
X39623999Y-137922009D01*
X64770012Y-139192009D02*
X52197000Y-139192009D01*
X70154812Y-113995209D02*
X70154812Y-123342409D01*
X70358012Y-138557009D02*
X70358012Y-126619009D01*
X70154812Y-123342409D02*
X70104012Y-123393209D01*
X68580012Y-140335009D02*
X70358012Y-138557009D01*
X65913012Y-140335009D02*
X64770012Y-139192009D01*
%TO.N,/MOSI*%
X81280012Y-105410009D02*
X80391012Y-105410009D01*
X63627012Y-140462009D02*
X66040012Y-142875009D01*
X71628012Y-127279409D02*
X72237612Y-126669809D01*
X54864000Y-140462009D02*
X63627012Y-140462009D01*
X71958212Y-123418609D02*
X72009012Y-123469409D01*
X71628012Y-141160509D02*
X71628012Y-127279409D01*
X80391012Y-105410009D02*
X71958212Y-113842809D01*
X66040012Y-142875009D02*
X69913512Y-142875009D01*
X71958212Y-113842809D02*
X71958212Y-123418609D01*
X69913512Y-142875009D02*
X71628012Y-141160509D01*
%TO.N,Net-(IC3-Pad10)*%
X76200000Y-142875000D02*
X78105000Y-142875000D01*
X78105000Y-142875000D02*
X80645000Y-140335000D01*
X80645000Y-140335000D02*
X85090000Y-140335000D01*
D34*
%TO.N,Net-(IC3-Pad14)*%
X76200000Y-128905000D02*
X76200000Y-132715000D01*
D35*
%TO.N,Net-(IC4-Pad10)*%
X90932000Y-117856000D02*
X90932000Y-125730000D01*
X97155000Y-141351000D02*
X97155000Y-142875000D01*
X90932000Y-125730000D02*
X94869000Y-129667000D01*
D34*
X88900000Y-105410000D02*
X89154000Y-105664000D01*
D35*
X89916000Y-116840000D02*
X90932000Y-117856000D01*
X94869000Y-129667000D02*
X94869000Y-139065000D01*
X94869000Y-139065000D02*
X97155000Y-141351000D01*
D34*
X98171000Y-105664000D02*
X98425000Y-105410000D01*
X89154000Y-105664000D02*
X98171000Y-105664000D01*
D35*
X88011000Y-116840000D02*
X89916000Y-116840000D01*
X87503000Y-116332000D02*
X88011000Y-116840000D01*
X87884000Y-105410000D02*
X87503000Y-105791000D01*
X88900000Y-105410000D02*
X87884000Y-105410000D01*
X87503000Y-105791000D02*
X87503000Y-116332000D01*
%TO.N,Net-(IC4-Pad3)*%
X74091812Y-126517409D02*
X78841612Y-126517409D01*
X82042012Y-112268009D02*
X82931012Y-111379009D01*
X82804012Y-122174009D02*
X81280012Y-120650009D01*
X80264012Y-120650009D02*
X78176716Y-122737280D01*
X82804012Y-126492009D02*
X82804012Y-122174009D01*
X82931012Y-101981009D02*
X81280012Y-100330009D01*
X72621101Y-149882895D02*
X72621101Y-127988120D01*
X81280012Y-120650009D02*
X80264012Y-120650009D01*
X78841612Y-126517409D02*
X79260114Y-126935911D01*
X69342012Y-153162009D02*
X72621101Y-149882895D01*
X73152012Y-114808009D02*
X75692012Y-112268009D01*
X75692012Y-112268009D02*
X82042012Y-112268009D01*
X82360110Y-126935911D02*
X82804012Y-126492009D01*
D32*
X60198000Y-153162000D02*
X54864000Y-153162000D01*
D35*
X79260114Y-126935911D02*
X82360110Y-126935911D01*
X72621101Y-127988120D02*
X74091812Y-126517409D01*
X78176716Y-122737280D02*
X75112283Y-122737280D01*
X73152012Y-120777009D02*
X73152012Y-114808009D01*
X82931012Y-111379009D02*
X82931012Y-101981009D01*
X75112283Y-122737280D02*
X73152012Y-120777009D01*
X60198012Y-153162009D02*
X69342012Y-153162009D01*
%TO.N,Net-(IC1-Pad1)*%
X110381900Y-146685000D02*
X109111900Y-145415000D01*
D34*
X122555000Y-142494000D02*
X118364000Y-146685000D01*
X118364000Y-146685000D02*
X113919000Y-146685000D01*
D35*
X100965000Y-142875000D02*
X102235000Y-142875000D01*
X113919000Y-146685000D02*
X110381900Y-146685000D01*
X102235000Y-142875000D02*
X104775000Y-145415000D01*
D34*
X122555000Y-140970000D02*
X122555000Y-142494000D01*
D37*
%TO.N,Net-(IC1-Pad5)*%
X93980012Y-155575009D02*
X86360012Y-147955009D01*
X104775012Y-155575009D02*
X93980012Y-155575009D01*
X86360012Y-147955009D02*
X85090012Y-147955009D01*
D34*
%TO.N,Net-(IC1-Pad7)*%
X120396000Y-172339000D02*
X122555000Y-170180000D01*
X104775000Y-165735000D02*
X111379000Y-172339000D01*
X111379000Y-172339000D02*
X120396000Y-172339000D01*
X104775000Y-160655000D02*
X104775000Y-165735000D01*
D32*
%TO.N,Net-(IC3-Pad3)*%
X34798000Y-160782000D02*
X39624000Y-160782000D01*
D35*
X36957000Y-158114999D02*
X36957000Y-138303009D01*
X67437012Y-136652009D02*
X68580012Y-137795009D01*
X39623999Y-160781999D02*
X36957000Y-158114999D01*
X38607999Y-136652009D02*
X67437012Y-136652009D01*
X36957000Y-138303009D02*
X38607999Y-136652009D01*
D36*
%TO.N,Net-(IC1-Pad9)*%
X112395012Y-158114999D02*
X115570012Y-158114999D01*
X118364012Y-158368999D02*
X116840012Y-156845009D01*
X115570012Y-158114999D02*
X116840012Y-156845009D01*
X112395012Y-170814999D02*
X116967012Y-170814999D01*
X118364012Y-169417999D02*
X118364012Y-158368999D01*
X116967012Y-170814999D02*
X118364012Y-169417999D01*
D35*
%TO.N,/SCK1*%
X79629012Y-123190009D02*
X81280012Y-123190009D01*
X60832991Y-124587009D02*
X78232012Y-124587009D01*
X78232012Y-124587009D02*
X79629012Y-123190009D01*
X60198000Y-125222000D02*
X60832991Y-124587009D01*
D32*
X60198000Y-125222000D02*
X54864000Y-125222000D01*
D34*
%TO.N,Net-(IC4-Pad14)*%
X88900000Y-95250000D02*
X90551000Y-93599000D01*
X92837000Y-101600000D02*
X92837000Y-102997000D01*
X90551000Y-93599000D02*
X94107000Y-93599000D01*
X95123000Y-94615000D02*
X95123000Y-99314000D01*
X95123000Y-99314000D02*
X92837000Y-101600000D01*
X94107000Y-93599000D02*
X95123000Y-94615000D01*
D35*
%TO.N,/MOSI1*%
X65405012Y-125476009D02*
X81026009Y-125476009D01*
X60198012Y-127762009D02*
X63119012Y-127762009D01*
D32*
X60198000Y-127762000D02*
X54864000Y-127762000D01*
D35*
X63119012Y-127762009D02*
X65405012Y-125476009D01*
X81026009Y-125476009D02*
X81280000Y-125730000D01*
D34*
%TO.N,Net-(IC5-Pad14)*%
X91948000Y-117221000D02*
X91948000Y-124714000D01*
X90297000Y-115570000D02*
X91948000Y-117221000D01*
X101689001Y-133768999D02*
X102489000Y-132969000D01*
X91948000Y-124714000D02*
X98044000Y-130810000D01*
X98044000Y-130810000D02*
X98044000Y-132969000D01*
X98044000Y-132969000D02*
X98843999Y-133768999D01*
X88900000Y-115570000D02*
X90297000Y-115570000D01*
X98843999Y-133768999D02*
X101689001Y-133768999D01*
%TO.N,Net-(IC5-Pad10)*%
X90170000Y-133223000D02*
X90170000Y-135255000D01*
X88900000Y-125730000D02*
X93218000Y-130048000D01*
X93218000Y-130048000D02*
X93218000Y-130175000D01*
X93218000Y-130175000D02*
X90170000Y-133223000D01*
D35*
%TO.N,Net-(J2-Pad1)*%
X52324000Y-125222000D02*
X52324000Y-114046000D01*
X52324000Y-114046000D02*
X45212000Y-106934000D01*
%TO.N,Net-(J2-Pad2)*%
X49784000Y-114046000D02*
X42672000Y-106934000D01*
X49784000Y-125222000D02*
X49784000Y-114046000D01*
%TO.N,Net-(J2-Pad4)*%
X37846000Y-106934000D02*
X37592000Y-106934000D01*
X44704000Y-113792000D02*
X37846000Y-106934000D01*
X44704000Y-125222000D02*
X44704000Y-113792000D01*
%TO.N,Net-(J2-Pad5)*%
X39624000Y-110109000D02*
X38227000Y-110109000D01*
X42164000Y-125222000D02*
X42164000Y-112649000D01*
X42164000Y-112649000D02*
X39624000Y-110109000D01*
X38227000Y-110109000D02*
X35052000Y-106934000D01*
D33*
%TO.N,Net-(C20-Pad1)*%
X32766000Y-93040221D02*
X34899612Y-90906609D01*
X39776412Y-89585809D02*
X39776412Y-85521809D01*
X34798000Y-170942000D02*
X32766000Y-168910000D01*
X58293080Y-84455000D02*
X58293080Y-87472280D01*
X32766000Y-168910000D02*
X32766000Y-93040221D01*
X38455612Y-90906609D02*
X39776412Y-89585809D01*
X40843221Y-84455000D02*
X64566803Y-84455000D01*
X66167000Y-86055197D02*
X66167000Y-86614000D01*
X64566803Y-84455000D02*
X66167000Y-86055197D01*
D32*
X34798000Y-170942000D02*
X39624000Y-170942000D01*
D33*
X34899612Y-90906609D02*
X38455612Y-90906609D01*
X39776412Y-85521809D02*
X40843221Y-84455000D01*
X58293080Y-87472280D02*
X62738000Y-91917200D01*
D34*
%TO.N,Net-(J1-Pad2)*%
X61849003Y-168402000D02*
X71719003Y-178272000D01*
X77014000Y-178272000D02*
X83514000Y-178272000D01*
D38*
X60071000Y-168402000D02*
X54737000Y-168402000D01*
D34*
X60198000Y-168402000D02*
X61849003Y-168402000D01*
X71719003Y-178272000D02*
X77014000Y-178272000D01*
%TO.N,Net-(J1-Pad3)*%
X62230000Y-165862000D02*
X63373000Y-167005000D01*
D33*
X88190000Y-164120000D02*
X94690000Y-164120000D01*
D34*
X60198000Y-165862000D02*
X62230000Y-165862000D01*
X63373000Y-167005000D02*
X85305000Y-167005000D01*
X85305000Y-167005000D02*
X88190000Y-164120000D01*
D32*
X60198000Y-165862000D02*
X54864000Y-165862000D01*
D34*
%TO.N,Net-(J1-Pad4)*%
X61400081Y-163322000D02*
X63940090Y-165862009D01*
X63940090Y-165862009D02*
X75271991Y-165862009D01*
X77014000Y-164120000D02*
X83514000Y-164120000D01*
X60198000Y-163322000D02*
X61400081Y-163322000D01*
X75271991Y-165862009D02*
X77014000Y-164120000D01*
D32*
X60198000Y-163322000D02*
X54864000Y-163322000D01*
D34*
%TO.N,Net-(J1-Pad5)*%
X60198000Y-160782000D02*
X61992000Y-160782000D01*
X61992000Y-160782000D02*
X65330000Y-164120000D01*
D32*
X60071000Y-160782000D02*
X54737000Y-160782000D01*
D34*
X65330000Y-164120000D02*
X71830000Y-164120000D01*
%TO.N,Net-(J1-Pad6)*%
X76796000Y-158242000D02*
X77014000Y-158460000D01*
X60198000Y-158242000D02*
X76796000Y-158242000D01*
X77014000Y-158460000D02*
X83514000Y-158460000D01*
D32*
X60325000Y-158242000D02*
X54991000Y-158242000D01*
%TO.N,Net-(J1-Pad7)*%
X60198000Y-155702000D02*
X54864000Y-155702000D01*
%TO.N,Net-(J1-Pad9)*%
X60198000Y-150622000D02*
X54864000Y-150622000D01*
%TO.N,Net-(J1-Pad11)*%
X60198000Y-145542000D02*
X54864000Y-145542000D01*
%TO.N,Net-(J1-Pad12)*%
X60198000Y-143002000D02*
X54864000Y-143002000D01*
%TO.N,Net-(J1-Pad14)*%
X60198000Y-137922000D02*
X54864000Y-137922000D01*
%TO.N,Net-(J1-Pad15)*%
X60198000Y-135382000D02*
X54864000Y-135382000D01*
%TO.N,Net-(J1-Pad16)*%
X60198000Y-132842000D02*
X54864000Y-132842000D01*
%TO.N,Net-(J1-Pad17)*%
X60198000Y-130302000D02*
X54864000Y-130302000D01*
D34*
%TO.N,Net-(IC1-Pad13)*%
X114300000Y-147955000D02*
X116078000Y-149733000D01*
X112395000Y-147955000D02*
X114300000Y-147955000D01*
X116078000Y-149733000D02*
X119380000Y-149733000D01*
D32*
%TO.N,Net-(J1-Pad20)*%
X60198000Y-122682000D02*
X54864000Y-122682000D01*
%TO.N,Net-(J1-Pad21)*%
X60198000Y-120142000D02*
X54864000Y-120142000D01*
%TO.N,Net-(J1-Pad22)*%
X60198000Y-117602000D02*
X54864000Y-117602000D01*
%TO.N,Net-(J1-Pad23)*%
X60198000Y-115062000D02*
X54864000Y-115062000D01*
%TO.N,Net-(J1-Pad24)*%
X60198000Y-112522000D02*
X54864000Y-112522000D01*
%TO.N,Net-(J3-Pad1)*%
X34798000Y-112522000D02*
X39624000Y-112522000D01*
%TO.N,Net-(J3-Pad2)*%
X34798000Y-115062000D02*
X39624000Y-115062000D01*
%TO.N,Net-(J3-Pad3)*%
X34798000Y-117602000D02*
X39624000Y-117602000D01*
%TO.N,Net-(J3-Pad4)*%
X34798000Y-120142000D02*
X39624000Y-120142000D01*
%TO.N,Net-(J3-Pad5)*%
X34798000Y-122682000D02*
X39624000Y-122682000D01*
%TO.N,Net-(J3-Pad6)*%
X34798000Y-125222000D02*
X39624000Y-125222000D01*
%TO.N,Net-(J3-Pad7)*%
X34798000Y-127762000D02*
X39624000Y-127762000D01*
%TO.N,Net-(J3-Pad8)*%
X34798000Y-130302000D02*
X39624000Y-130302000D01*
%TO.N,Net-(J3-Pad9)*%
X34798000Y-132842000D02*
X39624000Y-132842000D01*
D33*
%TO.N,+3V3*%
X113284000Y-142621000D02*
X109111900Y-142621000D01*
D34*
X115062000Y-98298000D02*
X116078000Y-99314000D01*
X103632000Y-100584000D02*
X103632000Y-98552000D01*
D33*
X96393000Y-138684000D02*
X97155000Y-139446000D01*
X78780000Y-137755000D02*
X76200000Y-140335000D01*
X86614000Y-123190000D02*
X86487000Y-123317000D01*
X86487000Y-123317000D02*
X86487000Y-136652000D01*
D34*
X119380000Y-142113000D02*
X119380000Y-135636000D01*
D33*
X78700000Y-137755000D02*
X76200000Y-135255000D01*
X86487000Y-97790000D02*
X86233000Y-98044000D01*
X117348000Y-140081000D02*
X115824000Y-140081000D01*
D34*
X98425000Y-91694000D02*
X98425000Y-87122000D01*
D33*
X86233000Y-98044000D02*
X86233000Y-102616000D01*
X86487000Y-136652000D02*
X85384000Y-137755000D01*
X86487000Y-102870000D02*
X86487000Y-123317000D01*
X115824000Y-140081000D02*
X113284000Y-142621000D01*
X86487000Y-136652000D02*
X89916000Y-140081000D01*
D34*
X88900000Y-97790000D02*
X87249000Y-96139000D01*
D33*
X96393000Y-132207000D02*
X96393000Y-138684000D01*
D34*
X101092000Y-100711000D02*
X99187000Y-100711000D01*
X87249000Y-96139000D02*
X87249000Y-93218000D01*
X119380000Y-135636000D02*
X116205000Y-132461000D01*
X115062000Y-96139000D02*
X115062000Y-98298000D01*
X90551000Y-104521000D02*
X88900000Y-102870000D01*
D33*
X100457000Y-136144000D02*
X97155000Y-139446000D01*
D34*
X87249000Y-93218000D02*
X88773000Y-91694000D01*
D33*
X101473000Y-138938000D02*
X105156000Y-142621000D01*
D34*
X119380000Y-137287000D02*
X119380000Y-135636000D01*
D33*
X88900000Y-102870000D02*
X86487000Y-102870000D01*
X101473000Y-136144000D02*
X100457000Y-136144000D01*
X101473000Y-136144000D02*
X101473000Y-138938000D01*
X86233000Y-102616000D02*
X86487000Y-102870000D01*
D34*
X116078000Y-99314000D02*
X116078000Y-100584000D01*
D33*
X88900000Y-97790000D02*
X93345000Y-97790000D01*
D34*
X95377000Y-104521000D02*
X90551000Y-104521000D01*
D33*
X88900000Y-118110000D02*
X87122000Y-118110000D01*
X119380000Y-142113000D02*
X117348000Y-140081000D01*
D34*
X88773000Y-91694000D02*
X98425000Y-91694000D01*
X99187000Y-100711000D02*
X95377000Y-104521000D01*
D33*
X78700000Y-137755000D02*
X80010000Y-137755000D01*
X86487000Y-97790000D02*
X88900000Y-97790000D01*
D34*
X103632000Y-98552000D02*
X106045000Y-96139000D01*
D33*
X85384000Y-137755000D02*
X80010000Y-137755000D01*
X89916000Y-140081000D02*
X93472000Y-140081000D01*
X88900000Y-123190000D02*
X86614000Y-123190000D01*
D34*
X106045000Y-96139000D02*
X108077000Y-96139000D01*
%TO.N,-3V3*%
X115697000Y-142113000D02*
X116078000Y-142113000D01*
X120015000Y-102616000D02*
X121158000Y-101473000D01*
X116078000Y-142113000D02*
X117856000Y-143891000D01*
X130175000Y-104902000D02*
X125984000Y-100711000D01*
X121158000Y-101473000D02*
X121158000Y-100584000D01*
X120954812Y-142697188D02*
X120954812Y-139217409D01*
X130175000Y-135940821D02*
X130175000Y-104902000D01*
X119761000Y-143891000D02*
X120954812Y-142697188D01*
X129286012Y-136829809D02*
X130175000Y-135940821D01*
X117856000Y-143891000D02*
X119761000Y-143891000D01*
X115443000Y-102616000D02*
X120015000Y-102616000D01*
X112395000Y-145415000D02*
X115697000Y-142113000D01*
X120954812Y-139217409D02*
X123342412Y-136829809D01*
X123342412Y-136829809D02*
X129286012Y-136829809D01*
D32*
%TO.N,Net-(J3-Pad21)*%
X34798000Y-163322000D02*
X39624000Y-163322000D01*
D33*
%TO.N,Net-(J3-Pad25)*%
X34798000Y-173482000D02*
X35687000Y-174371000D01*
X42164000Y-172974000D02*
X42164000Y-168402000D01*
X40767000Y-174371000D02*
X42164000Y-172974000D01*
X35687000Y-174371000D02*
X40767000Y-174371000D01*
D34*
%TO.N,Net-(J9-Pad1)*%
X42931000Y-177292000D02*
X43307000Y-177292000D01*
X43307000Y-177292000D02*
X45974000Y-174625000D01*
X45974000Y-174625000D02*
X45974000Y-170212000D01*
%TO.N,Net-(BL_SIG1-Pad1)*%
X124815612Y-155981409D02*
X126263412Y-154533609D01*
X124815612Y-160299388D02*
X124815612Y-155981409D01*
X122555000Y-162560000D02*
X124815612Y-160299388D01*
X126263412Y-154533609D02*
X127635000Y-154533609D01*
%TO.N,Net-(J9-Pad2)*%
X48514000Y-177927000D02*
X48514000Y-170212000D01*
X40391000Y-177292000D02*
X40391000Y-179329000D01*
X46863000Y-179578000D02*
X48514000Y-177927000D01*
X40640000Y-179578000D02*
X46863000Y-179578000D01*
X40391000Y-179329000D02*
X40640000Y-179578000D01*
D33*
%TO.N,Net-(C15-Pad1)*%
X78232000Y-128422397D02*
X77520812Y-127711209D01*
X83947000Y-131064000D02*
X83439000Y-131572000D01*
X81280000Y-95250000D02*
X81280000Y-92583000D01*
X82169000Y-91694000D02*
X82169000Y-88138000D01*
D34*
X88900000Y-133096000D02*
X87757000Y-133096000D01*
X84455000Y-113030000D02*
X84328000Y-112903000D01*
X85217000Y-113030000D02*
X84455000Y-113030000D01*
X89027000Y-113030000D02*
X88392000Y-113030000D01*
X90297000Y-111760000D02*
X89027000Y-113030000D01*
D33*
X78232000Y-131699000D02*
X78232000Y-128422397D01*
X83185000Y-87122000D02*
X78518000Y-87122000D01*
X84328000Y-112903000D02*
X84328000Y-115189000D01*
X73406000Y-86995000D02*
X73660000Y-87249000D01*
X81280000Y-95250000D02*
X83820000Y-95250000D01*
X74117212Y-132715009D02*
X74142612Y-132689609D01*
X76200000Y-119380000D02*
X76200000Y-116840000D01*
D34*
X83566000Y-131572000D02*
X83439000Y-131572000D01*
D33*
X74142612Y-143357612D02*
X76200000Y-145415000D01*
X83439000Y-131572000D02*
X82550000Y-132461000D01*
D34*
X90297000Y-109347000D02*
X90297000Y-111760000D01*
D33*
X84328000Y-95758000D02*
X84328000Y-112903000D01*
D34*
X85090000Y-133096000D02*
X83566000Y-131572000D01*
D33*
X83947000Y-115570000D02*
X83947000Y-131064000D01*
X64770000Y-132735000D02*
X65945000Y-131560000D01*
X83947000Y-115570000D02*
X81280000Y-115570000D01*
X82550000Y-132461000D02*
X78994000Y-132461000D01*
X78518000Y-87122000D02*
X78105000Y-87535000D01*
D34*
X76200000Y-98965000D02*
X77539624Y-98965000D01*
D33*
X82169000Y-88138000D02*
X83185000Y-87122000D01*
X81280000Y-92583000D02*
X82169000Y-91694000D01*
D34*
X78028812Y-103327188D02*
X76200000Y-105156000D01*
D33*
X68580000Y-132715000D02*
X64790000Y-132715000D01*
X73660000Y-87249000D02*
X77819000Y-87249000D01*
X73609212Y-132715009D02*
X74117212Y-132715009D01*
X78994000Y-132461000D02*
X78232000Y-131699000D01*
X84328000Y-115189000D02*
X83947000Y-115570000D01*
X77819000Y-87249000D02*
X78105000Y-87535000D01*
X83820000Y-95250000D02*
X84328000Y-95758000D01*
D34*
X90424000Y-129794000D02*
X90424000Y-131572000D01*
D33*
X76200000Y-116840000D02*
X77470000Y-115570000D01*
X76200000Y-98965000D02*
X76200000Y-96520000D01*
D34*
X77539624Y-98965000D02*
X78028812Y-99454188D01*
D33*
X74817769Y-127711209D02*
X74142612Y-128386366D01*
D34*
X88900000Y-128270000D02*
X90424000Y-129794000D01*
D33*
X74142612Y-128386366D02*
X74142612Y-132689609D01*
D34*
X88900000Y-107950000D02*
X90297000Y-109347000D01*
D33*
X65945000Y-127635000D02*
X65945000Y-131560000D01*
X74142612Y-132689609D02*
X74142612Y-143357612D01*
X77470000Y-115570000D02*
X81280000Y-115570000D01*
D34*
X90424000Y-131572000D02*
X88900000Y-133096000D01*
X78028812Y-99454188D02*
X78028812Y-103327188D01*
D33*
X76200000Y-96520000D02*
X77470000Y-95250000D01*
X77520812Y-127711209D02*
X74817769Y-127711209D01*
X77470000Y-95250000D02*
X81280000Y-95250000D01*
D34*
%TO.N,Net-(GR_SIG1-Pad1)*%
X122834421Y-148590000D02*
X122555000Y-148590000D01*
X124815612Y-146608809D02*
X122834421Y-148590000D01*
X127635000Y-146608809D02*
X124815612Y-146608809D01*
%TO.N,Net-(IC6-Pad1)*%
X103505000Y-106426000D02*
X107061000Y-102870000D01*
X103505000Y-109855000D02*
X103505000Y-106426000D01*
X107061000Y-99949000D02*
X109220000Y-97790000D01*
X107061000Y-102870000D02*
X107061000Y-99949000D01*
X109220000Y-97790000D02*
X109220000Y-90551000D01*
D33*
X103632000Y-114173000D02*
X103632000Y-109982000D01*
D34*
X109220000Y-90551000D02*
X108712000Y-90043000D01*
D33*
X103632000Y-109982000D02*
X103505000Y-109855000D01*
D34*
%TO.N,Net-(IC6-Pad2)*%
X99695000Y-116713000D02*
X103632000Y-116713000D01*
X97155000Y-114173000D02*
X99695000Y-116713000D01*
X100457000Y-103632000D02*
X100457000Y-116713000D01*
X102184212Y-98044009D02*
X102184212Y-101904788D01*
X102184212Y-101904788D02*
X100457000Y-103632000D01*
X106172000Y-94056221D02*
X102184212Y-98044009D01*
X93345000Y-114173000D02*
X97155000Y-114173000D01*
X106172000Y-87503000D02*
X106172000Y-94056221D01*
%TO.N,Net-(IC6-Pad3)*%
X106172000Y-98044000D02*
X105740212Y-98475788D01*
X105740212Y-101269788D02*
X101600000Y-105410000D01*
X101600000Y-105410000D02*
X101600000Y-115570000D01*
X105740212Y-98475788D02*
X105740212Y-101269788D01*
D32*
%TO.N,Net-(J1-Pad10)*%
X60198000Y-148082000D02*
X54864000Y-148082000D01*
D34*
%TO.N,Net-(IC6-Pad5)*%
X97790000Y-123190000D02*
X96393000Y-124587000D01*
X95593001Y-123787001D02*
X96393000Y-124587000D01*
X92837000Y-110617000D02*
X91694000Y-111760000D01*
X91694000Y-115189000D02*
X95593001Y-119088001D01*
X102489000Y-123190000D02*
X97790000Y-123190000D01*
X103632000Y-124333000D02*
X102489000Y-123190000D01*
X92837000Y-110617000D02*
X98552000Y-110617000D01*
X95593001Y-119088001D02*
X95593001Y-123787001D01*
X91694000Y-111760000D02*
X91694000Y-115189000D01*
%TO.N,Net-(IC6-Pad6)*%
X105029000Y-139192000D02*
X104775000Y-139446000D01*
X103632000Y-126873000D02*
X101981000Y-126873000D01*
X101981000Y-126873000D02*
X99695000Y-124587000D01*
X105029012Y-128270009D02*
X105029012Y-139192009D01*
X103632000Y-126873000D02*
X105029000Y-128270000D01*
D32*
%TO.N,Net-(J3-Pad22)*%
X34798000Y-165862000D02*
X39624000Y-165862000D01*
D34*
%TO.N,Net-(IC6-Pad7)*%
X93345000Y-124361615D02*
X99695000Y-130711615D01*
X99695000Y-130711615D02*
X99695000Y-132207000D01*
X102489000Y-129413000D02*
X99695000Y-132207000D01*
X93345000Y-121793000D02*
X93345000Y-124361615D01*
X103632000Y-129413000D02*
X102489000Y-129413000D01*
%TO.N,Net-(IC6-Pad8)*%
X112903000Y-133096000D02*
X112903000Y-131064000D01*
X111252000Y-129413000D02*
X118364000Y-129413000D01*
X121031000Y-126746000D02*
X121031000Y-121285000D01*
X118364000Y-129413000D02*
X121031000Y-126746000D01*
X121031000Y-121285000D02*
X118745000Y-118999000D01*
X112903000Y-131064000D02*
X111252000Y-129413000D01*
%TO.N,Net-(IC6-Pad9)*%
X108712000Y-135763000D02*
X108712000Y-128281630D01*
X112903000Y-139954000D02*
X112903000Y-140716000D01*
X110120630Y-126873000D02*
X111252000Y-126873000D01*
X108712000Y-128281630D02*
X110120630Y-126873000D01*
X109093000Y-136144000D02*
X108712000Y-135763000D01*
X109093000Y-136144000D02*
X112903000Y-139954000D01*
D35*
%TO.N,Net-(IC6-Pad10)*%
X110109000Y-132969000D02*
X109855000Y-132715000D01*
X112649000Y-127508000D02*
X112649000Y-125730000D01*
X112649000Y-125730000D02*
X111252000Y-124333000D01*
X110363000Y-128143000D02*
X112014000Y-128143000D01*
X112014000Y-128143000D02*
X112649000Y-127508000D01*
D34*
X116205000Y-124841000D02*
X119507000Y-124841000D01*
D35*
X109855000Y-132715000D02*
X109855000Y-128651000D01*
D34*
X115697000Y-124333000D02*
X116205000Y-124841000D01*
D35*
X109855000Y-128651000D02*
X110363000Y-128143000D01*
D34*
X111252000Y-124333000D02*
X115697000Y-124333000D01*
%TO.N,Net-(IC6-Pad12)*%
X115316000Y-115189000D02*
X119761021Y-115189000D01*
X119761021Y-115189000D02*
X124460000Y-110490021D01*
X124460000Y-99949000D02*
X122555000Y-98044000D01*
X122555000Y-98044000D02*
X118618000Y-98044000D01*
X111252000Y-119253000D02*
X115316000Y-115189000D01*
X124460000Y-110490021D02*
X124460000Y-99949000D01*
%TO.N,Net-(IC6-Pad13)*%
X113919000Y-109347021D02*
X109753412Y-113512609D01*
X117094000Y-111379000D02*
X118745000Y-111379000D01*
X109753412Y-115214412D02*
X111252000Y-116713000D01*
X109753412Y-113512609D02*
X109753412Y-115214412D01*
X111252000Y-116713000D02*
X111760000Y-116713000D01*
X113919000Y-94869000D02*
X113919000Y-109347021D01*
X118618000Y-87503000D02*
X118618000Y-90170000D01*
X118618000Y-90170000D02*
X113919000Y-94869000D01*
X111760000Y-116713000D02*
X117094000Y-111379000D01*
%TO.N,Net-(R19-Pad2)*%
X120904000Y-150114000D02*
X120904000Y-147751821D01*
X124663212Y-140766788D02*
X127635000Y-137795000D01*
X124663212Y-143992609D02*
X124663212Y-140766788D01*
X122555000Y-151765000D02*
X120904000Y-150114000D01*
X120904000Y-147751821D02*
X124663212Y-143992609D01*
%TO.N,Net-(R18-Pad2)*%
X116205000Y-117094000D02*
X113157000Y-120142000D01*
X124028212Y-121488212D02*
X119634000Y-117094000D01*
X124028212Y-129438409D02*
X124028212Y-121488212D01*
D35*
X109982000Y-120523000D02*
X108966000Y-119507000D01*
X112776000Y-120523000D02*
X109982000Y-120523000D01*
X113157000Y-120142000D02*
X112776000Y-120523000D01*
X108966000Y-119507000D02*
X108966000Y-112014000D01*
D34*
X119634000Y-117094000D02*
X116205000Y-117094000D01*
D35*
X108966000Y-112014000D02*
X111125000Y-109855000D01*
D34*
X127635012Y-130759208D02*
X125349011Y-130759208D01*
X125349011Y-130759208D02*
X124028212Y-129438409D01*
%TO.N,Net-(R17-Pad2)*%
X122809000Y-117221000D02*
X122809000Y-118084596D01*
X122809000Y-118084596D02*
X127558812Y-122834408D01*
D32*
%TO.N,Net-(J3-Pad23)*%
X34798000Y-168402000D02*
X39624000Y-168402000D01*
D33*
%TO.N,/Pwr_In*%
X49490000Y-92623000D02*
X53213000Y-88900000D01*
X53213000Y-88900000D02*
X54610000Y-88900000D01*
X62509409Y-89560409D02*
X61087000Y-88138000D01*
X42164000Y-87122000D02*
X42164000Y-93472000D01*
X42164000Y-93472000D02*
X41910000Y-93726000D01*
X61087000Y-88138000D02*
X61087000Y-86614000D01*
X67310000Y-91440000D02*
X65430409Y-89560409D01*
X65430409Y-89560409D02*
X62509409Y-89560409D01*
X47625000Y-92623000D02*
X49490000Y-92623000D01*
D34*
%TO.N,Net-(IC6-Pad14)*%
X122809000Y-100076000D02*
X122809000Y-109601000D01*
X119376268Y-99695000D02*
X120011268Y-99060000D01*
X116967000Y-98679000D02*
X117983000Y-99695000D01*
X122809000Y-109601000D02*
X115824000Y-109601000D01*
X120011268Y-99060000D02*
X121793000Y-99060000D01*
X121158000Y-90043000D02*
X116967000Y-94234000D01*
X121793000Y-99060000D02*
X122809000Y-100076000D01*
X117983000Y-99695000D02*
X119376268Y-99695000D01*
X116967000Y-94234000D02*
X116967000Y-98679000D01*
X115824000Y-109601000D02*
X111252000Y-114173000D01*
%TD*%
M02*
